<?xml version="1.0" encoding="UTF-8" standalone="no"?>
<svg
   xmlns:dc="http://purl.org/dc/elements/1.1/"
   xmlns:cc="http://creativecommons.org/ns#"
   xmlns:rdf="http://www.w3.org/1999/02/22-rdf-syntax-ns#"
   xmlns:svg="http://www.w3.org/2000/svg"
   xmlns="http://www.w3.org/2000/svg"
   xmlns:xlink="http://www.w3.org/1999/xlink"
   xmlns:sodipodi="http://sodipodi.sourceforge.net/DTD/sodipodi-0.dtd"
   xmlns:inkscape="http://www.inkscape.org/namespaces/inkscape"
   width="614.85156"
   height="752.02441"
   viewBox="0 0 491.88125 601.61953"
   version="1.1"
   id="svg2"
   inkscape:version="0.48.4 r9939"
   sodipodi:docname="floor2.svg">
  <metadata
     id="metadata33">
    <rdf:RDF>
      <cc:Work
         rdf:about="">
        <dc:format>image/svg+xml</dc:format>
        <dc:type
           rdf:resource="http://purl.org/dc/dcmitype/StillImage" />
      </cc:Work>
    </rdf:RDF>
  </metadata>
  <defs
     id="defs31" />
  <sodipodi:namedview
     pagecolor="#ffffff"
     bordercolor="#666666"
     borderopacity="1"
     objecttolerance="10"
     gridtolerance="10"
     guidetolerance="10"
     inkscape:pageopacity="0"
     inkscape:pageshadow="2"
     inkscape:window-width="1280"
     inkscape:window-height="750"
     id="namedview29"
     showgrid="false"
     inkscape:zoom="0.71274282"
     inkscape:cx="363.54701"
     inkscape:cy="319.89098"
     inkscape:window-x="0"
     inkscape:window-y="0"
     inkscape:window-maximized="1"
     inkscape:current-layer="svg2"
     fit-margin-top="0"
     fit-margin-left="0"
     fit-margin-right="0"
     fit-margin-bottom="0" />
  <g
     id="surface1"
     transform="translate(-366.84062,-29.578906)">
    <path
       style="fill:none;stroke:#000000;stroke-width:0.60000002;stroke-linecap:round;stroke-linejoin:round;stroke-miterlimit:10;stroke-opacity:1"
       d="m 529.85937,612.42187 18,0 0,18 -18,0 z m -223.25781,29.87891 -22.5,0 0,-36 22.5,0 z m -22.5,0 z m -1.67969,-8.51953 -18,0 0,-18 18,0 z m -18,0 z m 0,0"
       transform="matrix(0,-1,-1,0,1224,792)"
       id="path5"
       inkscape:connector-curvature="0" />
    <path
       style="fill:none;stroke:#000000;stroke-width:0.60000002;stroke-linecap:round;stroke-linejoin:round;stroke-miterlimit:10;stroke-opacity:1"
       d="m 758.82031,840.35937 0,-254.28125 M 325.5,587.87891 l 0,42.66015 m 51.78125,0 0,-24.17969 m -16.32031,-15 0,20.58204 m -18.78125,-18.72266 0,18.72266 m -1.5,-18.72266 0,18.72266 M 359.46094,591 l 0,20.94141 m 304.85937,27.41796 0,-46.5 m -45.17969,22.74219 40.14063,0 0,-18.48047 -40.14063,0 z m 40.14063,0 z m -43.67969,-22.74219 0,33 m -450,75 0,-91.5 m -4.5,91.5 0,-91.5 m 149.21875,36 0,-116.28125 m 287.28125,140.28125 0,-76.5 m -173.28125,49.5 0,-68.28125 m 3.78125,66.54297 0,-73.67968 m -30.78125,82.13671 0,-133.5 m -3.71875,129.78125 0,-46.5 m 275.21875,-12.78125 0,53.28125 m -362.21875,110.21875 0,-224.21875 m 307.07813,136.92188 -0.96094,-0.12109 -0.95703,-0.35938 -0.96094,-0.60156 -0.78125,-0.83985 -0.71875,-1.01953 -0.53906,-1.26172 -0.30078,-1.3164 -0.1211,-1.44141 0.1211,-1.3789 0.30078,-1.32032 0.53906,-1.26172 0.71875,-1.01953 0.78125,-0.83984 0.96094,-0.60156 0.95703,-0.35938 0.96094,-0.11719 0.96093,0.11719 1.01954,0.35938 0.89843,0.60156 0.83985,0.83984 0.66015,1.01953 0.54297,1.26172 0.35938,1.32032 0.11718,1.3789 -0.11718,1.44141 -0.35938,1.3164 -0.54297,1.26172 -0.66015,1.01953 -0.83985,0.83985 -0.89843,0.60156 -1.01954,0.35938 z m 0,0.77734 -1.14063,-0.17968 -1.14062,-0.41797 -1.07813,-0.66016 -0.89844,-0.96094 -0.78125,-1.14062 -0.60156,-1.37891 -0.35937,-1.4414 -0.1211,-1.5586 0.1211,-1.5 0.35937,-1.4414 0.60156,-1.37891 0.78125,-1.14063 0.89844,-0.96093 1.07813,-0.66016 1.14062,-0.41797 1.14063,-0.17969 1.14062,0.17969 1.14063,0.41797 1.07812,0.66016 0.90235,0.96093 0.77734,1.14063 0.60156,1.37891 0.35938,1.4414 0.12109,1.5 -0.12109,1.5586 -0.35938,1.4414 -0.60156,1.37891 -0.77734,1.14062 -0.90235,0.96094 -1.07812,0.66016 -1.14063,0.41797 z M 614.21875,636 l 0.12109,-1.14063 0.42188,-1.07812 0.66015,-1.01953 0.89844,-0.83985 1.07813,-0.78125 1.20312,-0.53906 1.37891,-0.36328 1.4414,-0.17969 1.37891,0.0625 1.4375,0.30078 1.26172,0.41797 1.19922,0.66016 0.96094,0.83984 0.78125,0.89844 0.53906,1.08203 0.30078,1.07813 0,1.14062 -0.30078,1.08203 -0.53906,1.07813 -0.78125,0.90234 -0.96094,0.83985 -1.19922,0.66015 -1.26172,0.41797 -1.4375,0.30078 -1.37891,0.0586 -1.4414,-0.17969 -1.37891,-0.35938 -1.20312,-0.53906 -1.07813,-0.78125 -0.89844,-0.83984 -0.66015,-1.01953 -0.42188,-1.08204 z m 0.78125,0 0.12109,-1.01953 0.35938,-0.90235 0.59765,-0.89843 0.84375,-0.78125 1.01954,-0.66016 1.13671,-0.47656 1.32032,-0.36328 1.38281,-0.0586 1.32031,0.0586 1.32031,0.36328 1.19922,0.47656 1.01953,0.66016 0.78125,0.78125 0.65625,0.89843 0.36329,0.90235 0.11718,1.01953 -0.11718,0.96094 -0.36329,0.89843 -0.65625,0.90235 -0.78125,0.77734 -1.01953,0.66016 -1.19922,0.48047 -1.32031,0.35937 -1.32031,0.0625 -1.38281,-0.0625 -1.32032,-0.35937 -1.13671,-0.48047 -1.01954,-0.66016 -0.84375,-0.77734 -0.59765,-0.90235 -0.35938,-0.89843 z m -296.82031,80.57812 -1.19922,-0.17968 -1.08203,-0.41797 -1.07813,-0.66016 -0.89844,-0.96094 -0.78125,-1.14062 -0.60156,-1.37891 -0.35937,-1.4414 -0.1211,-1.5586 0.1211,-1.5 0.35937,-1.5 0.60156,-1.32031 0.78125,-1.14062 0.89844,-0.95704 1.07813,-0.72265 1.08203,-0.41797 1.19922,-0.12109 1.14062,0.12109 1.14063,0.41797 1.01953,0.72265 0.96094,0.95704 0.77734,1.14062 0.60156,1.32031 0.35938,1.5 0.12109,1.5 -0.12109,1.5586 -0.35938,1.4414 -0.60156,1.37891 -0.77734,1.14062 -0.96094,0.96094 -1.01953,0.66016 -1.14063,0.41797 z m 0,-0.77734 -1.01953,-0.12109 -0.96094,-0.35938 -0.89844,-0.60156 -0.83984,-0.83984 -0.66016,-1.01954 -0.53906,-1.25781 -0.36328,-1.32031 -0.11719,-1.44141 0.11719,-1.3789 0.36328,-1.38282 0.53906,-1.19921 0.66016,-1.01954 0.83984,-0.83984 0.89844,-0.59766 0.96094,-0.36328 1.01953,-0.11718 0.96093,0.11718 0.96094,0.36328 0.89844,0.59766 0.83984,0.83984 0.71875,1.01954 0.54297,1.19921 0.29688,1.38282 0.12109,1.3789 -0.12109,1.44141 -0.29688,1.32031 -0.54297,1.25781 -0.71875,1.01954 -0.83984,0.83984 -0.89844,0.60156 -0.96094,0.35938 z M 318,732.42187 l 0.12109,-1.08203 0.41797,-1.07812 0.60156,-1.02344 0.89844,-0.83984 1.08203,-0.77735 1.25782,-0.54297 1.32031,-0.35937 1.4414,-0.17969 1.4375,0.0625 1.38282,0.23828 1.32031,0.48047 1.14062,0.66016 1.01954,0.83984 0.77734,0.89844 0.54297,1.08203 0.23828,1.07813 0,1.14062 -0.23828,1.08203 -0.54297,1.01953 -0.77734,0.95703 -1.01954,0.84375 -1.14062,0.59766 -1.32031,0.48047 -1.38282,0.30078 -1.4375,0.0586 -1.4414,-0.17968 -1.32031,-0.35938 -1.25782,-0.60156 -1.08203,-0.71875 -0.89844,-0.89844 -0.60156,-0.96094 -0.41797,-1.08203 z m 0.71875,0 0.12109,-0.96093 0.35938,-0.90235 0.60156,-0.89843 0.83984,-0.78125 1.01954,-0.66016 1.19921,-0.53906 1.32032,-0.30078 1.32031,-0.0586 1.37891,0.0586 1.26171,0.30078 1.19922,0.53906 1.01953,0.66016 0.83985,0.78125 0.60156,0.89843 0.35938,0.90235 0.12109,0.96093 -0.12109,0.95704 -0.35938,0.96093 -0.60156,0.89844 -0.83985,0.78125 -1.01953,0.66016 -1.19922,0.48047 -1.26171,0.30078 -1.37891,0.11718 -1.32031,-0.11718 -1.32032,-0.30078 -1.19921,-0.48047 -1.01954,-0.66016 -0.83984,-0.78125 -0.60156,-0.89844 -0.35938,-0.96093 z m -149.87891,19.13672 45,0 0,22.5 -45,0 z m 0,0"
       transform="matrix(0,-1,-1,0,1224,792)"
       id="path7"
       inkscape:connector-curvature="0" />
    <path
       style="fill:none;stroke:#000000;stroke-width:0.60000002;stroke-linecap:round;stroke-linejoin:round;stroke-miterlimit:10;stroke-opacity:1"
       d="m 762.12109,770.76172 -33.96093,6.77734 M 306.60156,775.5 l -2.40234,-0.12109 -2.27735,-0.35938 -2.28125,-0.59766 -2.21875,-0.78125 -2.16015,-1.01953 -2.04297,-1.19922 -1.85938,-1.38281 -1.73828,-1.61719 -1.62109,-1.74218 -1.37891,-1.85938 -1.19922,-2.03906 -1.02343,-2.10156 -0.77735,-2.21875 -0.60156,-2.28125 -0.30078,-2.33985 -0.11719,-2.33984 m 124.5,29.57812 0,-16.5 m 147,36.78125 0,-75 m -3.78125,60.71875 0,-63.71875 m 142.5,30.71875 -0.12109,2.40235 -0.35938,2.28125 -0.53906,2.27734 -0.78125,2.22266 -1.01953,2.16015 -1.19922,2.03907 -1.44141,1.85937 -1.55859,1.73828 -1.74219,1.6211 -1.91797,1.3789 -1.98046,1.20313 -2.16016,1.01953 -2.21875,0.77734 -2.28125,0.60157 -2.33984,0.30078 -2.33985,0.11718 m -258,57.78125 0,-71.28125 m -249.71875,17.28125 0,-49.5 m 4.5,45 0,-45 m 207.71875,52.5 33,0 m -33,-3.78125 33.78125,0 m -50.28125,71.28125 49.5,0 m -49.5,4.5 54,0 m -76.5,-4.5 0,4.5 m 22.5,-4.5 0,4.5 m -123.71875,0 0,-4.5 m 22.5,4.5 0,-4.5 m -81,-22.5 0,27 58.5,0 m 101.21875,0 -101.21875,0 m 101.21875,0 22.5,0 m -31.80078,-44.16015 18,0 0,18 -18,0 z m 0,0"
       transform="matrix(0,-1,-1,0,1224,792)"
       id="path9"
       inkscape:connector-curvature="0" />
    <path
       style="fill:none;stroke:#000000;stroke-width:0.60000002;stroke-linecap:round;stroke-linejoin:round;stroke-miterlimit:10;stroke-opacity:1"
       d="m 176.82031,829.85937 0,-22.5 m 2.28125,22.5 0,-22.5 m -4.5,0 0,22.5 m 110.21875,22.5 0,-67.5 m -3.71875,67.5 0,-67.5 m 3.71875,67.5 0,-67.5 m 0,9 36,0 0,58.5 -36,0 z m 36,0 z m -141.71875,36 0,22.5 54,0 m 105.71875,0 -18,0 0,-9 18,0 z m -83.21875,0 78.71875,0 m -78.71875,2.21875 -22.5,0 m 0,-2.21875 22.5,0 m 101.21875,2.21875 -22.5,0 m 22.5,-2.21875 -22.5,0 m -159.71875,-22.5 4.5,0 m 194.21875,-45 -0.12109,2.33985 -0.35938,2.33984 -0.60156,2.28125 -0.83984,2.16016 -1.07813,2.09765 -1.26172,1.98047 -1.5,1.86328 -1.67968,1.67969 -1.80079,1.4375 -1.97656,1.32031 -2.10156,1.01954 -2.21875,0.90234 -2.28125,0.59766 -2.33984,0.35937 -2.33985,0.12109 0,-22.5 m -176.21875,22.5 0,-25.5 m 4.5,-4.5 0,30 -4.5,0 m 4.5,-30 25.5,0 m -25.5,7.5 25.5,0 m -30,-3 -13.5,0 m 18,-4.5 -13.5,0 m 185.21875,3.71875 0,3.78125 m 22.5,-3.78125 0,3.78125 m -168.71875,0 0,-7.5 m 54,7.5 0,-7.5 m 26.21875,7.5 66,0 m -92.21875,0 22.5,0 m -22.5,-7.5 48,0 m 3.71875,3.71875 0,-5.57812 m 63,5.57812 -63,0 m 0,-5.57812 -3.71875,0 0,1.85937 m 104.21875,63 0,16.5 m 146.51953,-46.19921 31.5,0 0,22.55859 -31.5,0 z m -143.46093,-0.48047 31.5,0 0,22.5 -31.5,0 z m 0,0"
       transform="matrix(0,-1,-1,0,1224,792)"
       id="path11"
       inkscape:connector-curvature="0" />
    <path
       style="fill:none;stroke:#000000;stroke-width:0.60000002;stroke-linecap:round;stroke-linejoin:round;stroke-miterlimit:10;stroke-opacity:1"
       d="m 745.32031,826.85937 0,-40.5 m -22.5,27 0,27 m -9,-27 0,27 m -9,-27 0,27 m 27,0 0,-63.59765 m -207.71875,59.09765 0,-48.78125 m 3.71875,48.78125 0,-45 m 141,15.71875 0,33.78125 m -262.5,-4.5 0,-51 m 258,51 0,-29.28125 m -12.35937,29.16016 -36,0 0,-9 36,0 z m -101.64063,0.12109 0,-10.5 m 3.78125,10.5 0,-10.5 m 47.21875,10.5 63,0 m -63,4.5 67.5,0 m -262.5,-4.5 0,16.5 m 69,-16.5 102,0 m 0,4.5 -102,0 0,-4.5 m -24,0 0,4.5 24,0 m -64.5,0 40.5,0 m 24,-2.28125 -24,0 m 24,-2.21875 -69,0 m 171,0 0,4.5 m 24,-4.5 0,4.5 -24,0 m 24,-2.28125 -24,0 m 0,-2.21875 24,0 m 67.5,4.5 90,0 m -208.5,-15 3.78125,0 m 142.32031,4.6211 3.83985,0 0,-1.32031 -0.1836,-0.53907 -0.35937,-0.35937 -0.35938,-0.1836 -0.53906,-0.17968 -0.89844,0 -0.54296,0.17968 -0.41797,0.1836 -0.35938,0.35937 -0.17969,0.53907 z m 0,-3.83985 3.83985,0 -3.83985,-2.58203 3.83985,0 m 0.89844,3.30078 44.16015,0 m -181.85937,-36 18,0 0,18 -18,0 z m -143.28125,-0.48046 18,0 0,18 -18,0 z m 130.14062,10.98046 0,-10.5 m 114,15.71875 0,-19.5 m 2.28125,0 0,19.5 m 2.21875,0 0,-19.5 m -118.5,14.28125 3.78125,0 m 177.71875,12 -27,0 m -40.5,-6.78125 4.5,0 m 63,6.78125 27,0 m -27,-9 27,0 m -27,-9 27,0 m -231,-4.5 22.5,0 m -26.21875,-3.78125 26.21875,0 m 118.5,-9 0,9 m -4.5,-9 0,9 4.5,0 m 73.32031,2.46094 3.17969,-3.17969 3.17969,3.17969 m -16.67969,-3.17969 27,0 m -94.5,-8.28125 4.5,0 m 63,-0.71875 27,0"
       transform="matrix(0,-1,-1,0,1224,792)"
       id="path13"
       inkscape:connector-curvature="0" />
    <path
       style="fill:none;stroke:#000000;stroke-width:0.60000002;stroke-linecap:round;stroke-linejoin:round;stroke-miterlimit:10;stroke-opacity:1"
       d="m 372.60156,704.21875 -2.40234,-0.11719 -2.27735,-0.36328 -2.28125,-0.59766 -2.21875,-0.78125 -2.16015,-1.01953 -2.04297,-1.19922 -1.85938,-1.3789 -1.73828,-1.6211 -1.62109,-1.74218 -1.37891,-1.85938 -1.19922,-2.03906 -1.02343,-2.10156 -0.77735,-2.21875 -0.60156,-2.28125 -0.30078,-2.33985 -0.11719,-2.33984 m -6.78125,4.85937 0,8.28125 m -159.48047,35.69922 18,0 0,18 -18,0 z M 318,739.80078 l -7.67969,0 0,-14.76172 7.67969,0 z m -7.67969,0 z m 0,-46.44141 0,52.5 m 62.28125,-23.33984 -23.33984,23.33984 m 27.05859,-21.78125 -25.5,25.5 m -72,-15 0,-15.35937 m -3.71875,19.14062 0,-19.14062 m 7.5,32.28125 24,0 0,-1.92188 m 3.71875,0 0,1.92188 -3.71875,0 m 0,-1.92188 44.21875,0 m -40.5,-3.71875 38.94141,0 m -70.44141,-11.28125 27.78125,0 m -31.5,3.78125 31.5,0 m 69.71875,-34.14062 0,19.85937 m -3.71875,-19.85937 0,18.30078 m -209.28125,9.83984 0,-31.5 m 2.28125,0 0,31.5 m -4.5,-31.5 0,31.5 4.5,0 m 113.21875,-13.14062 -3.71875,0 m -114,-18.35938 4.5,0 m 150.95703,7.01954 0.48047,0.12109 0.35938,0.35937 0.17968,0.48047 -0.17968,0.53907 -0.35938,0.30078 -0.48047,0.17968 -0.48047,-0.17968 -0.35937,-0.30078 -0.11719,-0.53907 0.11719,-0.48047 L 316.07812,708 z m 56.04297,-3.66016 3.71875,0 m -66,-10.85938 31.5,0 m 34.5,-44.28125 0,31.14063 m -179.51953,-7.85938 -22.5,0 0,-9 22.5,0 z m 113.51953,18 28.5,-28.5 m 0,28.5 -28.5,-28.5 m 31.5,5.21875 0,18 m -3,0 0,-18 m -28.5,-5.21875 0,28.5 m 62.28125,-28.5 0,18.35938 m -97.5,-6 0,-15.35938 m 3.71875,15.35938 0,-15.35938 m 60,26.21875 0,5.28125 -28.5,0 m 28.5,-5.28125 3,0 m -63,-10.85937 -3.71875,0 m 73.5,6 27.71875,0 m -210.71875,-21.35938 109.5,0 m 63.71875,3 0,5.21875 m 3,-5.21875 0,5.21875 -3,0 m 3,-5.21875 30.78125,0 m -62.28125,0 28.5,0 m -60,-3 27.78125,0 m 41.09766,-13.5 0,-30.78125 m 6.24219,30.78125 0,-30.78125 m 6.23828,1.14063 0,29.64062 m -18.71875,-29.64062 0,29.64062 m -34.85938,-1.5 -141,0 m 231.71875,5.21875 -21,0 m 17.28125,-3.71875 -83.28125,0 M 325.5,630.53906 l 51.78125,0 m -18.96094,-15.96094 -15,0 m 15,-1.5 -15,0 m 18.78125,2.64063 -3.78125,0 0,-3.77734 3.78125,0 z m -3.78125,0 z m -18.71875,-1.85938 -29.28125,0 m 33,1.85938 -3.71875,0 0,-3.77734 3.71875,0 z m -3.71875,0 z m 54,-1.85938 -31.5,0"
       transform="matrix(0,-1,-1,0,1224,792)"
       id="path15"
       inkscape:connector-curvature="0" />
    <path
       style="fill:none;stroke:#000000;stroke-width:0.60000002;stroke-linecap:round;stroke-linejoin:round;stroke-miterlimit:10;stroke-opacity:1"
       d="m 512.87891,695.33984 -2.75782,0 -0.54297,-0.17968 -0.35937,-0.35938 -0.17969,-0.60156 0,-0.35938 0.17969,-0.53906 0.35937,-0.35937 0.54297,-0.17969 2.75782,0 m -3.83985,-1.44141 3.83985,0 0,-1.67969 -0.17969,-0.53906 -0.17969,-0.17969 -0.35937,-0.18359 -0.53907,0 -0.35937,0.18359 -0.1836,0.17969 -0.23828,0.53906 0,1.67969 m 157.98047,-18.96094 2.33985,0.1211 2.33984,0.30078 2.28125,0.59766 2.21875,0.78125 2.16016,1.01953 1.98046,1.19922 1.91797,1.4414 1.74219,1.5586 1.55859,1.74218 1.44141,1.91797 1.19922,1.98047 1.01953,2.16016 0.78125,2.21875 0.53906,2.28125 0.35938,2.33984 0.12109,2.33984 m -104.76172,-4.91796 -2.03906,1.19921 -2.09766,1.07813 -2.22265,0.78125 -2.27735,0.60156 -2.34375,0.35938 -2.33984,0.11718 -2.33984,-0.0586 -2.33985,-0.35937 -2.27734,-0.53907 -2.22266,-0.78125 -2.16015,-0.96093 -2.03907,-1.19922 -1.91796,-1.37891 -1.74219,-1.62109 -1.6211,-1.67969 -1.3789,-1.92188 m 114.12109,11.28125 0,57.71875 m -84.60156,-48.23828 1.26172,1.98047 1.01953,2.16016 0.78125,2.16015 0.59766,2.28125 0.35937,2.33985 0.12109,2.33984 -0.0586,2.39844 -0.35937,2.28125 -0.54297,2.33984 -0.77735,2.21875 -0.96093,2.10157 -1.19922,2.03906 -1.38282,1.91797 -1.55859,1.74218 -1.73828,1.6211 -1.92188,1.3789 -13.5,-19.80078 m -153.53906,21.23828 0,-17.21875 m -3.71875,17.21875 0,-21 m 257.21875,34.5 0,-57.71875 m -229.5,44.21875 -0.12109,2.40235 -0.35938,2.28125 -0.53906,2.27734 -0.78125,2.22266 -1.01953,2.16015 -1.19922,2.03907 -1.44141,1.85937 -1.55859,1.73828 -1.74219,1.6211 -1.91797,1.3789 -1.98046,1.20313 -2.16016,1.01953 -2.21875,0.77734 -2.28125,0.60157 -2.33984,0.30078 -2.33985,0.11718 -3.71875,0 m 285.71875,-10.5 -28.5,0 m -229.5,-13.5 -27.71875,0 m 157.25781,-21.23828 -10.25781,7.01953 m -143.28125,-3 139.5,0 m -143.21875,-3.78125 150.23828,0 4.92188,-3.35937 2.09765,3.12109 m 23.87891,-16.26172 76.08203,0 m -73.5,-3.71875 73.5,0 m -77.21875,0 -4.98047,3.35938 2.09766,3.12109 4.01953,-2.76172 m 2.58203,-3.71875 0,-3 m -3.71875,3 0,-3 3.71875,0 m 102,0 -28.5,0 m -70.4414,-44.33984 -36,0 0,-9 36,0 z m -73.14063,-20.28125 36,0 0,22.5 -36,0 z m 145.86328,30.12109 0,-22.5 m -2.28125,0 0,22.5 m 4.5,0 0,-22.5 m -36.35937,26.21875 0.11718,-2.33984 0.36329,-2.33984 0.53906,-2.27735 0.78125,-2.22265 1.01953,-2.09766 1.19922,-2.03906 1.4414,-1.92188 1.5586,-1.73828 1.73828,-1.5625 1.92187,-1.3789 1.98047,-1.26172 2.16016,-0.95703 2.21875,-0.83985 2.28125,-0.54297 2.33984,-0.35937 2.33985,-0.1211 0,24 m -49.85938,-39.71875 0,39.71875 m -161.46094,-10.5 -17.03906,-14.45703 m 15.66016,18.23828 -19.44141,-16.5 m 66.78125,12.71875 0,-13.5 m 22.5,13.5 0,-13.5 m -2.64062,45.96094 0,-16.32031 m -26.64063,0 3.17969,3.17969 m -16.67969,12.90234 7.80078,-32.22266 m 31.5586,3.78125 -10.85938,24 23.28125,-11.28125 m 0,12.78125 0,-25.5 m -45,24.71875 0,-24.23828 m 6.71875,24.23828 0,-24.71875 m 6.78125,24.71875 0,-24.71875 m 6.71875,24 0,-24 m 171,3 0,10.5 m -4.5,0 0,-3 m -89.76172,2.21875 13.5,19.86329 m 2.76172,-19.08204 0,-3 m -3.71875,3 0,-3 m -60.78125,-10.5 0,24.71875 m -3.71875,-24.71875 0,28.5 m 27.59766,-3.78125 2.40234,-1.55859 2.09766,3.05859 m -55.37891,-0.71875 23.28125,0 m -26.28125,0.71875 -24.96094,0 m 24.96094,-1.5 -24.60156,0 m 27.60156,2.28125 -3,0 0,-3 3,0 z m -3,0 z m 58.37891,-0.78125 -3.30078,2.28125 -28.79688,0 m 3.71875,-3.78125 23.87891,0 m 40.62109,-11.21875 -3.71875,0 m 77.21875,0 4.5,0 m -71.21875,-3 34.85938,0 m -25.85938,-3.78125 25.85938,0 m -54.60157,-0.77734 0,-5.94141 m -66.89843,12.35938 -26.64063,0 3.17969,-3.17969 m 90.35937,-3.23828 -5.46093,3.71875 2.16015,3.05859 m 23.04297,-2.21875 -6.78125,0 m -16.26172,2.21875 3.30078,-2.21875 9.24219,0 m -89.28125,-10.5 24.78125,0 -78.83984,0 m 1.3789,-3.78125 45.96094,0 m 35.21875,3.78125 51.53906,0 m -64.25781,-3.78125 84,0 m 34.85938,10.5 0,3.78125 m 24,-3.78125 0,3.78125 7.85937,0 m 0,-7.5 4.5,0 m -12.35937,3.71875 7.85937,0 0,-3.71875 m -52.19922,-7.5 0.48047,0.1211 0.35938,0.35937 0.11718,0.48047 -0.11718,0.53906 -0.35938,0.35938 -0.48047,0.12109 -0.48047,-0.12109 -0.35937,-0.35938 -0.17969,-0.53906 0.17969,-0.48047 0.35937,-0.35937 z m 2.09766,-11.03906 -7.61719,0 0,-14.69922 7.61719,0 z m -7.61719,0 z m -115.5,-1.74219 22.5,0 m 150.71875,-2.21875 4.5,0 m -53.21875,-13.5 -9,0 m 57.71875,-6 -48.71875,0 m -158.88281,-91.3789 -0.11719,0.96094 -0.36328,0.95703 -0.59766,0.90234 -0.83984,0.83984 -1.08203,0.71875 -1.19922,0.53907 -1.37891,0.30078 -1.3789,0.12109 -1.44141,-0.12109 -1.32031,-0.30078 -1.19922,-0.53907 -1.08203,-0.71875 -0.83984,-0.83984 -0.59766,-0.90234 -0.35938,-0.95703 -0.12109,-0.96094 0.12109,-1.01953 0.35938,-0.96094 0.59766,-0.89844 0.83984,-0.83984 1.08203,-0.66016 1.19922,-0.54297 1.32031,-0.35937 1.44141,-0.1211 1.3789,0.1211 1.37891,0.35937 1.19922,0.54297 1.08203,0.66016 0.83984,0.83984 0.59766,0.89844 0.36328,0.96094 z m 0.72266,0 -0.1211,1.14062 -0.42187,1.14063 -0.71875,1.01953 -0.96094,0.95703 -1.14063,0.78125 -1.3164,0.60156 -1.5,0.35938 -1.5,0.12109 -1.5625,-0.12109 -1.4375,-0.35938 -1.32031,-0.60156 -1.20313,-0.78125 -0.95703,-0.95703 -0.66016,-1.01953 -0.42187,-1.14063 -0.1211,-1.14062 0.1211,-1.19922 0.42187,-1.08203 0.66016,-1.07813 0.95703,-0.90234 1.20313,-0.77734 1.32031,-0.60157 1.4375,-0.35937 1.5625,-0.1211 1.5,0.1211 1.5,0.35937 1.3164,0.60157 1.14063,0.77734 0.96094,0.90234 0.71875,1.07813 0.42187,1.08203 z m 24.59765,-0.30078 -1.07812,-0.1211 -1.08203,-0.41797 -1.01954,-0.66015 -0.89843,-0.83985 -0.72266,-1.08203 -0.53906,-1.25781 -0.35938,-1.37891 -0.17968,-1.38281 0.0586,-1.4375 0.24219,-1.38281 0.48047,-1.32031 0.66015,-1.19922 0.83985,-0.96094 0.89843,-0.77734 1.08203,-0.53907 1.07813,-0.24218 1.14062,0 1.07813,0.24218 1.01953,0.53907 0.96094,0.77734 0.83984,0.96094 0.60156,1.19922 0.48047,1.32031 0.30078,1.38281 0,1.4375 -0.12109,1.38281 -0.35937,1.37891 -0.60157,1.25781 -0.71875,1.08203 -0.90234,0.83985 -0.95703,0.66015 -1.08203,0.41797 z m 0,-0.71875 -0.96094,-0.1211 -0.95703,-0.35937 -0.83984,-0.60156 -0.78125,-0.83985 -0.66016,-1.01953 -0.53906,-1.19922 L 477,522 476.87891,520.67969 477,519.30078 l 0.30078,-1.32031 0.53906,-1.14063 0.66016,-1.01953 0.78125,-0.83984 0.83984,-0.60156 0.95703,-0.35938 0.96094,-0.12109 0.96094,0.12109 0.96094,0.35938 0.89843,0.60156 0.78125,0.83984 0.66016,1.01953 0.48047,1.14063 0.29687,1.32031 0.1211,1.37891 -0.1211,1.32031 -0.29687,1.32031 -0.48047,1.19922 -0.66016,1.01953 -0.78125,0.83985 -0.89843,0.60156 L 483,527.33984 z m -216,-89.16016 18,0 0,18 -18,0 z m 214.26172,21.83984 -18,0 0,-18 18,0 z m -18,0 z m 45,13.5 -22.5,0 0,-45 22.5,0 z m -22.5,0 z m 0,0"
       transform="matrix(0,-1,-1,0,1224,792)"
       id="path17"
       inkscape:connector-curvature="0" />
    <path
       style="fill:none;stroke:#000000;stroke-width:0.60000002;stroke-linecap:round;stroke-linejoin:round;stroke-miterlimit:10;stroke-opacity:1"
       d="m 641.82031,469.07812 0,-85.5 m -393,72 0,-31.5 m -2.21875,0 0,31.5 m 4.5,0 0,-31.5 m 310.5,27 0,-85.5 m -4.5,85.5 0,-81 m -184.5,78.78125 0,-23.28125 m 24.71875,52.5 0,-108 m 114,108 0,-75 m 4.5,75 0,-75 m -117,51 2.33985,0.1211 2.33984,0.35937 2.28125,0.54297 2.21875,0.83985 2.16016,0.95703 1.98046,1.26172 1.91797,1.3789 1.74219,1.5625 1.55859,1.73828 1.44141,1.92188 1.19922,2.03906 1.01953,2.09766 0.78125,2.22265 0.53906,2.27735 0.35938,2.33984 0.12109,2.33984"
       transform="matrix(0,-1,-1,0,1224,792)"
       id="path19"
       inkscape:connector-curvature="0" />
    <path
       style="fill:none;stroke:#000000;stroke-width:0.60000002;stroke-linecap:round;stroke-linejoin:round;stroke-miterlimit:10;stroke-opacity:1"
       d="m 381.30078,519.35937 -0.12109,2.33985 -0.35938,2.33984 -0.60156,2.28125 -0.77734,2.21875 -1.01954,2.10156 -1.20312,2.03907 -1.37891,1.85937 -1.62109,1.80078 -1.73828,1.5586 -1.85938,1.38281 -2.04297,1.19922 -2.09765,1.01953 -2.21875,0.78125 -2.28125,0.59766 -2.33985,0.35937 -2.33984,0.12109 0,-24 m 36.30078,45 0,-45 m -105,6 0,4.5 m -22.5,-4.5 0,4.5 m -105,48 0,-52.5 m 90,4.5 0,-15 m 55.4375,76.5 -9,0 0,-27 9,0 z m -9,0 z m 43.14063,-1.91796 0.12109,-2.04297 0.35938,-2.03907 0.60156,-1.98046 0.77734,-1.85938 0.96094,-1.80078 1.19922,-1.67969 1.3789,-1.55859 1.5625,-1.37891 1.67969,-1.20312 1.80078,-0.95703 1.85938,-0.83985 1.98047,-0.54297 2.03906,-0.35937 2.10156,-0.1211 m -16.92187,18.36329 0.12109,-1.98047 0.41797,-2.03907 0.60156,-1.92187 0.83985,-1.85938 1.01953,-1.74218 1.26172,-1.61719 1.4375,-1.44141 1.62109,-1.26172 1.73828,-1.07812 1.86328,-0.83984 1.91797,-0.60157 2.03906,-0.35937 2.04297,-0.1211 m 19.07813,-3.35937 0,11.64062 m 15.42187,12.71875 0,-25.5 M 362.82031,586.5 l 0,-18.42188 m -3.71875,22.86329 0,-26.58204 m -193.5,13.5 0,-48 m 233.21875,40.5 0,3.71875 m -1.5,20.34375 -38.21875,-8.76171 m -15.78125,7.55859 -3.71875,0 0,-3.77734 3.71875,0 z m -3.71875,0 z m -176.28125,16.14062 0,-31.5 m -2.21875,0 0,31.5 m 4.5,-31.5 0,31.5 -4.5,0 m 213,0.17969 3.17969,-3.17969 3.17969,3.17969 m -70.14063,-3.17969 30.35938,0 m 52.92187,0 -32.64062,0 m 36.35937,-6.66015 -38.21875,-8.75781 m -48.78125,7.91796 30.35938,0 m 52.92187,0 -32.64062,0 m -21.35938,-7.5 -29.28125,0 m -144.71875,-13.5 -4.5,0 M 375,577.67969 l 3.17969,3.17968 3.17968,-3.17968 m -57.53906,9.24218 3.83985,0 0,-1.26171 -0.17969,-0.53907 -0.35938,-0.35937 -0.35937,-0.1836 -0.54297,-0.23828 -0.89844,0 -0.60156,0.23828 -0.35938,0.1836 -0.35937,0.35937 -0.17969,0.53907 z m 0,-3.84375 3.83985,0 -3.83985,-2.57812 3.83985,0 m 65.9414,7.85937 -22.80078,0 m 22.80078,-7.5 -30.78125,0 m 30.78125,-7.5 -30.78125,0 m 36,0.71875 -1.5,0 m -31.14062,-9.71875 0.12109,-2.39843 0.35938,-2.28125 0.60156,-2.28125 0.77734,-2.21875 1.01953,-2.16016 1.20313,-2.03906 1.3789,-1.85938 1.6211,-1.74218 1.73828,-1.61719 1.85937,-1.38281 2.03907,-1.19922 2.10156,-1.01953 2.21875,-0.78125 2.28125,-0.59766 2.33984,-0.30078 2.33985,-0.1211 0,24 m -101.57813,-12 -2.40234,-0.12109 -2.27735,-0.41797 -2.28125,-0.60156 -2.21875,-0.83984 -2.10156,-1.07813 -1.98047,-1.26172 -1.80078,-1.5 -1.67969,-1.61719 -1.5,-1.86328 -1.25781,-1.98047 -1.08203,-2.09765 -0.83984,-2.16016 -0.60157,-2.28125 -0.35937,-2.33984 -0.11719,-2.33985 m 22.5,0 0,22.5 m 91.5,15.24219 -2.76172,0 -0.53906,-0.17969 -0.35937,-0.36328 -0.17969,-0.53906 0,-0.35937 0.17969,-0.53907 0.35937,-0.35937 0.53906,-0.1836 2.76172,0 m -3.83984,-1.5 3.83984,0 0,-1.61718 -0.17969,-0.53907 -0.18359,-0.24218 -0.41797,-0.17969 -0.53906,0 -0.35938,0.17969 -0.18359,0.24218 -0.17969,0.53907 0,1.61718 m -11.8789,4.5 0,-3.71875 m 24,3.71875 0,-3.71875 m -24,3.71875 -3.35938,0 m 30.78125,0 -3.42187,0 m 8.64062,2.28125 -1.5,0 m -31.14062,-6 -7.07813,0 m 34.5,0 -3.42187,0 m -139.07813,-34.5 -85.5,0 m 123,0 18,0 m -55.5,0 15,0 m -15,-37.5 0,-36.78125 m -4.5,36.78125 0,-36.78125 m 2.21875,59.28125 0,-22.5 m -2.21875,0 0,22.5 m 4.5,0 0,-22.5 m -4.5,33 -85.5,0 m 183.89844,-6 -4.5,9.71875 m 2.10156,-13.5 -4.5,9.78125 m -91.5,0 0,-10.5 m 60,10.5 -18,0 m -22.5,0 -15,0 m 59.21875,3.71875 30.17969,0 m -33.89844,-3.71875 31.5,0 m -87,-10.5 -4.5,0 m 134.69922,0.71875 16.01953,0 m -16.01953,3.78125 12.30078,0 m -36.30078,0 0,-3.78125 m 24,3.78125 0,-3.78125 M 345,519.35937 l 12.30078,0 m -14.69922,-3.78125 14.69922,0 m -106.19922,-23.21875 -4.5,0 m 67.13672,-17.03906 -18,0 0,-9 18,0 z m -56.21875,-17.58203 36,0 0,18 -36,0 z m 133.80078,20.33984 0,-24 m -24,24 0.1211,-2.33984 0.35937,-2.33984 0.53906,-2.27735 0.83985,-2.22265 0.96093,-2.09766 1.25782,-2.03906 1.38281,-1.92188 1.55859,-1.73828 1.73828,-1.5625 1.92188,-1.3789 2.03906,-1.26172 2.10156,-0.95703 2.21875,-0.83985 2.28125,-0.54297 2.33985,-0.35937 2.33984,-0.1211 m 7.5,24 0,-24 m -6,24 0,-29.21875 m -1.5,29.21875 0,3.78125 m -24,-3.78125 0,3.78125 m 31.5,-3.78125 0,3.78125 m -31.5,0 -116.21875,0 m 147.71875,0 -7.5,0 m -24,-3.78125 -116.21875,0 m 147.71875,0 -1.5,0 m -4.5,0 -1.5,0 m -140.21875,-22.5 -4.5,0 m 146.21875,-6.71875 -20.21875,0"
       transform="matrix(0,-1,-1,0,1224,792)"
       id="path21"
       inkscape:connector-curvature="0" />
    <path
       style="fill:none;stroke:#000000;stroke-width:0.60000002;stroke-linecap:round;stroke-linejoin:round;stroke-miterlimit:10;stroke-opacity:1"
       d="m 758.82031,586.07812 -90,-90 m -219.05859,33 0.47656,0.1211 0.36328,0.35937 0.11719,0.48047 -0.11719,0.48047 -0.36328,0.35938 -0.47656,0.12109 -0.48047,-0.12109 -0.35938,-0.35938 -0.12109,-0.48047 0.12109,-0.48047 0.35938,-0.35937 z m 39.66015,6.78125 -14.76171,0 0,-7.67968 14.76171,0 z m 43.67969,0 24,-21 m -24,0 24,21 m -51,0 24,-21 m -24,0 24,21 0,-21 m 3,0 0,21 m -27,0 0,-21 m -3,21 0,-24 m 54,24 0,-27 m -132.78125,30.71875 0,-29.21875 m 3.78125,25.5 0,-25.5 m 133.5,75.71875 0,-77.21875 m 114.66016,66.83985 3.89844,0 0,-1.25781 -0.17969,-0.60157 -0.42188,-0.35937 -0.35937,-0.17969 -0.53906,-0.17969 -0.89844,0 -0.54297,0.17969 -0.35938,0.17969 -0.35937,0.35937 -0.23828,0.60157 z m 0,-3.83985 3.89844,0 -3.89844,-2.57812 3.89844,0 M 641.82031,572.57812 645,569.39844 m -22.73828,18.54297 6.77734,-32.16016 m -0.71875,30.29687 0,-27 m 6.78125,27 0,-27 m 6.71875,27 0,-27 m 6.78125,27 0,-27 m 13.5,27 0,-27 m -6.78125,27 0,-27 m 6.78125,27 0,-27 m 6.71875,27 0,-27 m -216.71875,-16.13671 -0.12109,2.39843 -0.35938,2.28125 -0.60156,2.33985 -0.78125,2.16015 -1.01953,2.16016 -1.19922,2.03906 -1.37891,1.85938 -1.62109,1.74218 -1.73828,1.61719 -1.85938,1.38281 -2.04296,1.19922 -2.09766,1.01953 -2.22266,0.78125 -2.27734,0.59766 -2.33984,0.35938 -2.33985,0.0625 m -5.28125,3.41796 0,3.71875 m 134.28125,-34.5 0,53.28125 40.5,0 m 24.11719,12.66016 0.42187,0.12109 0.30079,0.30079 0.11718,0.41796 -0.11718,0.42188 -0.30079,0.29687 -0.42187,0.1211 -0.41797,-0.1211 -0.35937,-0.29687 -0.0625,-0.42188 0.0625,-0.41796 0.35937,-0.30079 z m 42.60156,-12.66016 -48.71875,0 m 53.21875,-6.78125 -107.21875,0 m -137.28125,-12 -1.5,0 M 645,575.76172 l -3.17969,-3.1836 31.07813,0 m -248.57813,-2.21875 0,-3.41796 3.78125,0 m -3.78125,3.41796 -1.5,0 m 246,-11.28125 -40.5,0 m -200.21875,-16.13671 0,-3.36329 m -3.78125,0 0,3.36329 m 27.78125,0 -27.78125,0 m 132.78125,-3.36329 -132.78125,0 m 78.78125,-3.71875 -75,0 m 102,0 -24,0 m 51,0 -24,0 m 122.21875,-35.82031 0,-24.17969 m 13.5,20.21875 0,-32.33984 m -27,32.33984 0,-27 m -82.5,39.78125 0,-22.5 m -2.21875,0 0,22.5 m 4.5,0 0,-22.5 m -109.5,0 -0.12109,2.33985 -0.35938,2.33984 -0.60156,2.28125 -0.78125,2.21875 -1.01953,2.10156 -1.19922,2.03907 -1.37891,1.85937 -1.62109,1.74219 -1.73828,1.61719 -1.85938,1.38281 -2.04296,1.19922 -2.09766,1.01953 -2.22266,0.78125 -2.27734,0.59766 -2.33984,0.35937 -2.33985,0.12109 m 81,1.5 -6,0 m -75,-1.5 -3.78125,0 m 84.78125,4.5 0,-3 m 18,3 0,-3 m 9,3 0,-3 m 18,3 0,-3 m -45,3 18,0 m 27,0 -21,0 m -24,0 -3,0 m 24,0 -3,0 m 30,0 -3,0 m -27,-3 -18,0 m 45,0 -27,0 m 30,0 -3,0 m 3,-3 4.5,0 M 658.14062,507 l -2.76171,0 -0.53907,-0.17969 -0.35937,-0.35937 -0.17969,-0.53907 0,-0.36328 0.17969,-0.53906 0.35937,-0.35937 0.53907,-0.17969 2.76171,0 m -3.83984,-1.5 3.83984,0 0,-1.6211 -0.17968,-0.53906 -0.17969,-0.17969 -0.35938,-0.24218 -0.54296,0 -0.35938,0.24218 -0.23828,0.17969 -0.17969,0.53906 0,1.6211 m 12.71875,-6.90235 -27,0 m 27,-6.71875 -27,0 m 30.30078,-26.28125 -33.96093,6.72266 m -78.83985,3.77734 0,-22.5 m -2.21875,0 0,22.5 m 4.5,0 0,-22.5 m -138.78125,27 0,3.78125 m 138.78125,4.5 0,-12.78125 m -137.28125,12.78125 0,-8.28125 m 132.78125,3.78125 -129,0 0,4.5 24,0 m -24,0 -3.78125,0 m 0,-4.5 -1.5,0 m 134.28125,0 0,4.5 4.5,0 m -4.5,-8.28125 -134.28125,0 m 134.28125,0 0,-4.5 4.5,0 m 96.89844,5.46094 -3.17969,-3.17969 -3.17969,3.17969 m 16.67969,3.53906 -27,0 m 27,-6.71875 -27,0 m 27,-6.78125 -27,0 m -84.71875,-18 4.5,0 m -150.12109,-54.11718 -9,0 0,-22.5 9,0 z m -9,0 z m 27.12109,-31.38282 -75,0 m 75,4.5 -75,0 m -108,54 0,-58.5 m 108,0 0,4.5 m -24,-4.5 0,4.5 m -7.5,-4.5 0,4.5 m -21,-4.5 0,4.5 m -51,54 0,-54 m 141.71875,75 0,-75 m -16.5,55.5 0,19.5 16.5,0 m -141.71875,-21 -4.5,0 m 129.71875,1.5 -3.71875,0 m 0,-36 0,-19.5 m 3.71875,0 0,19.5 -3.71875,0 m -70.5,-19.5 -51,0 m 72,0 31.5,0 m 0,-2.21875 -24,0 m -28.5,2.21875 21,0 m 0,-2.21875 -21,0 m 0,-2.28125 -55.5,0 m 76.5,0 31.5,0 m -52.5,0 21,0 m 368.39844,18 0,-18 m -261.89844,4.5 0,-4.5 m 52.5,4.5 0,-4.5 m -30,4.5 0,-4.5 m 7.5,4.5 0,-4.5"
       transform="matrix(0,-1,-1,0,1224,792)"
       id="path23"
       inkscape:connector-curvature="0" />
    <path
       style="fill:none;stroke:#000000;stroke-width:0.60000002;stroke-linecap:round;stroke-linejoin:round;stroke-miterlimit:10;stroke-opacity:1"
       d="m 511.32031,403.07812 4.5,0 m 0,-24 0,-9 m -4.5,0 0,9 4.5,0 m 41.28125,-9 -75,0 m -30,-2.21875 -22.5,0 m 22.5,2.21875 -22.5,0 m 52.5,-2.21875 -22.5,0 m 22.5,2.21875 -30,0 m 189.71875,13.5 49.67969,0 m 0,-18 -209.39844,0 m -52.5,0 22.5,0 m 30,0 -30,0"
       transform="matrix(0,-1,-1,0,1224,792)"
       id="path25"
       inkscape:connector-curvature="0" />
    <path
       style="fill:none;stroke:#000000;stroke-width:0.60000002;stroke-linecap:round;stroke-linejoin:round;stroke-miterlimit:10;stroke-opacity:1"
       d="m 188.10156,619.37891 -22.5,0 0,-31.5 22.5,0 z m -22.5,0 z m 9,-41.51954 -9,0 0,-27 9,0 z m -9,0 z m 42.0586,35.21875 -18,0 0,-18 18,0 z m -18,0 z m 0,0"
       transform="matrix(0,-1,-1,0,1224,792)"
       id="path27"
       inkscape:connector-curvature="0" />
  </g>
  <a
     target="_blank" xlink:href="../tour.html#the-rush"
     id="a19"
     transform="translate(-366.84062,-29.578906)">
    <text
       xml:space="preserve"
       style="font-size:32px;font-style:normal;font-weight:normal;line-height:125%;letter-spacing:0px;word-spacing:0px;fill:#0000ff;fill-opacity:1;stroke:none;font-family:Sans"
       x="601.625"
       y="562.7782"
       id="text3044"
       sodipodi:linespacing="125%"><tspan
         sodipodi:role="line"
         x="601.625"
         y="562.7782"
         id="tspan3046"><tspan
           x="601.625"
           y="562.7782"
           style="font-size:14.39999962px;fill:#0000ff"
           id="tspan3048">The Rush</tspan></tspan></text>
  </a>
  <a
     target="_blank" xlink:href="../tour.html#the-flower"
     id="a24"
     transform="translate(-366.84062,-29.578906)">
    <text
       xml:space="preserve"
       style="font-size:32px;font-style:normal;font-weight:normal;line-height:125%;letter-spacing:0px;word-spacing:0px;fill:#0000ff;fill-opacity:1;stroke:none;font-family:Sans"
       x="756.42389"
       y="469.62994"
       id="text3050"
       sodipodi:linespacing="125%"><tspan
         sodipodi:role="line"
         x="756.42389"
         y="469.62994"
         id="tspan3052"><tspan
           x="756.42389"
           y="469.62994"
           style="font-size:14.39999962px;fill:#0000ff"
           id="tspan3054">The Flower</tspan></tspan></text>
  </a>
  <a
     target="_blank" xlink:href="../tour.html#the-knot"
     id="a29"
     transform="translate(-366.84062,-29.578906)">
    <text
       xml:space="preserve"
       style="font-size:32px;font-style:normal;font-weight:normal;line-height:125%;letter-spacing:0px;word-spacing:0px;fill:#0000ff;fill-opacity:1;stroke:none;font-family:Sans"
       x="771.02393"
       y="352.88824"
       id="text3056"
       sodipodi:linespacing="125%"><tspan
         sodipodi:role="line"
         x="771.02393"
         y="352.88824"
         id="tspan3058"><tspan
           x="771.02393"
           y="352.88824"
           style="font-size:14.39999962px;fill:#0000ff"
           id="tspan3060">The Knot</tspan></tspan></text>
  </a>
  <a
     target="_blank" xlink:href="../tour.html#the-party-shower"
     id="a34"
     transform="translate(-366.84062,-29.578906)">
    <text
       xml:space="preserve"
       style="font-size:32px;font-style:normal;font-weight:normal;line-height:125%;letter-spacing:0px;word-spacing:0px;fill:#0000ff;fill-opacity:1;stroke:none;font-family:Sans"
       x="689.07483"
       y="300.14792"
       id="text3062"
       sodipodi:linespacing="125%"><tspan
         sodipodi:role="line"
         x="689.07483"
         y="300.14792"
         id="tspan3064"><tspan
           x="689.07483"
           y="300.14792"
           style="font-size:14.39999962px;fill:#0000ff"
           id="tspan3066">Party</tspan><tspan
           dx="0"
           x="726.0592"
           y="300.14792"
           style="font-size:14.39999962px;fill:#0000ff"
           id="tspan3068" /></tspan><tspan
         sodipodi:role="line"
         x="689.07483"
         y="318.14792"
         id="tspan3070"><tspan
           x="689.07483"
           y="318.14792"
           style="font-size:14.39999962px;fill:#0000ff"
           id="tspan3072" /></tspan><tspan
         sodipodi:role="line"
         x="689.07483"
         y="336.14792"
         id="tspan3074"><tspan
           x="689.07483"
           y="336.14792"
           style="font-size:14.39999962px;fill:#0000ff"
           id="tspan3076">Shower</tspan></tspan></text>
  </a>
  <a
     target="_blank" xlink:href="../tour.html#the-rainbow"
     id="a44"
     transform="translate(-366.84062,-29.578906)">
    <text
       xml:space="preserve"
       style="font-size:32px;font-style:normal;font-weight:normal;line-height:125%;letter-spacing:0px;word-spacing:0px;fill:#0000ff;fill-opacity:1;stroke:none;font-family:Sans"
       x="584.70325"
       y="300.15155"
       id="text3078"
       sodipodi:linespacing="125%"><tspan
         sodipodi:role="line"
         x="584.70325"
         y="300.15155"
         id="tspan3080"><tspan
           x="584.70325"
           y="300.15155"
           style="font-size:14.39999962px;fill:#0000ff"
           id="tspan3082">The Rainbow</tspan></tspan></text>
  </a>
  <a
     target="_blank" xlink:href="../tour.html#the-t"
     id="a49"
     transform="translate(-366.84062,-29.578906)">
    <text
       xml:space="preserve"
       style="font-size:32px;font-style:normal;font-weight:normal;line-height:125%;letter-spacing:0px;word-spacing:0px;fill:#0000ff;fill-opacity:1;stroke:none;font-family:Sans"
       x="580.20813"
       y="154.21652"
       id="text3084"
       sodipodi:linespacing="125%"><tspan
         sodipodi:role="line"
         x="580.20813"
         y="154.21652"
         id="tspan3086"><tspan
           x="580.20813"
           y="154.21652"
           style="font-size:14.39999962px;fill:#0000ff"
           id="tspan3088">The T</tspan></tspan></text>
  </a>
  <text
     xml:space="preserve"
     style="font-size:32px;font-style:normal;font-weight:normal;line-height:125%;letter-spacing:0px;word-spacing:0px;fill:#0000ba;fill-opacity:1;stroke:none;font-family:Sans"
     x="336.83783"
     y="160.55779"
     id="text3090"
     sodipodi:linespacing="125%"><tspan
       sodipodi:role="line"
       x="336.83783"
       y="160.55779"
       id="tspan3092"><tspan
         x="336.83783"
         y="160.55779"
         style="font-size:14.39999962px;fill:#000000"
         id="tspan3094">Deck</tspan></tspan></text>
  <a
     target="_blank" xlink:href="../tour.html#the-toastie"
     id="a57"
     transform="translate(-366.84062,-29.578906)">
    <text
       xml:space="preserve"
       style="font-size:32px;font-style:normal;font-weight:normal;line-height:125%;letter-spacing:0px;word-spacing:0px;fill:#0000ff;fill-opacity:1;stroke:none;font-family:Sans"
       x="409.60321"
       y="180.03487"
       id="text3096"
       sodipodi:linespacing="125%"><tspan
         sodipodi:role="line"
         x="409.60321"
         y="180.03487"
         id="tspan3098"><tspan
           x="409.60321"
           y="180.03487"
           style="font-size:14.39999962px;fill:#0000ff"
           id="tspan3100">The Toastie</tspan></tspan></text>
  </a>
  <a
     target="_blank" xlink:href="../tour.html#the-wood"
     id="a62"
     transform="translate(-366.84062,-29.578906)">
    <text
       xml:space="preserve"
       style="font-size:32px;font-style:normal;font-weight:normal;line-height:125%;letter-spacing:0px;word-spacing:0px;fill:#0000ff;fill-opacity:1;stroke:none;font-family:Sans"
       x="406.22308"
       y="316.96808"
       id="text3102"
       sodipodi:linespacing="125%"><tspan
         sodipodi:role="line"
         x="406.22308"
         y="316.96808"
         id="tspan3104"><tspan
           x="406.22308"
           y="316.96808"
           style="font-size:14.39999962px;fill:#0000ff"
           id="tspan3106">The Wood</tspan></tspan></text>
  </a>
  <a
     target="_blank" xlink:href="../tour.html#closet"
     id="a67"
     transform="translate(-366.84062,-29.578906)">
    <text
       xml:space="preserve"
       style="font-size:32px;font-style:normal;font-weight:normal;line-height:125%;letter-spacing:0px;word-spacing:0px;fill:#0000ff;fill-opacity:1;stroke:none;font-family:Sans"
       x="374.81396"
       y="406.77933"
       id="text3108"
       sodipodi:linespacing="125%"><tspan
         sodipodi:role="line"
         x="374.81396"
         y="406.77933"
         id="tspan3110"><tspan
           x="374.81396"
           y="406.77933"
           style="font-size:14.39999962px;fill:#0000ff"
           id="tspan3112">The </tspan></tspan><tspan
         sodipodi:role="line"
         x="374.81396"
         y="424.77933"
         id="tspan3114"><tspan
           x="374.81396"
           y="424.77933"
           style="font-size:14.39999962px;fill:#0000ff"
           id="tspan3116">Closet</tspan></tspan></text>
  </a>
  <a
     target="_blank" xlink:href="../tour.html#the-coke"
     id="a74"
     transform="translate(-366.84062,-29.578906)">
    <text
       xml:space="preserve"
       style="font-size:32px;font-style:normal;font-weight:normal;line-height:125%;letter-spacing:0px;word-spacing:0px;fill:#0000ff;fill-opacity:1;stroke:none;font-family:Sans"
       x="427.56201"
       y="559.41437"
       id="text3118"
       sodipodi:linespacing="125%"><tspan
         sodipodi:role="line"
         x="427.56201"
         y="559.41437"
         id="tspan3120"><tspan
           x="427.56201"
           y="559.41437"
           style="font-size:14.39999962px;fill:#0000ff"
           id="tspan3122">The Coke</tspan></tspan></text>
  </a>
  <a
     target="_blank" xlink:href="../tour.html#max-occ"
     id="a79"
     transform="translate(-366.84062,-29.578906)">
    <text
       xml:space="preserve"
       style="font-size:32px;font-style:normal;font-weight:normal;line-height:125%;letter-spacing:0px;word-spacing:0px;fill:#0000ff;fill-opacity:1;stroke:none;font-family:Sans"
       x="482.56082"
       y="451.66159"
       id="text3124"
       sodipodi:linespacing="125%"><tspan
         sodipodi:role="line"
         x="482.56082"
         y="451.66159"
         id="tspan3126"><tspan
           x="482.56082"
           y="451.66159"
           style="font-size:14.39999962px;fill:#0000ff"
           id="tspan3128">Max Occ</tspan></tspan></text>
  </a>
</svg>
