<?xml version="1.0" encoding="UTF-8" standalone="no"?>
<svg
   xmlns:dc="http://purl.org/dc/elements/1.1/"
   xmlns:cc="http://creativecommons.org/ns#"
   xmlns:rdf="http://www.w3.org/1999/02/22-rdf-syntax-ns#"
   xmlns:svg="http://www.w3.org/2000/svg"
   xmlns="http://www.w3.org/2000/svg"
   xmlns:xlink="http://www.w3.org/1999/xlink"
   xmlns:sodipodi="http://sodipodi.sourceforge.net/DTD/sodipodi-0.dtd"
   xmlns:inkscape="http://www.inkscape.org/namespaces/inkscape"
   width="612.54108"
   height="660.94336"
   viewBox="0 0 490.03286 528.75469"
   version="1.1"
   id="svg2"
   inkscape:version="0.48.4 r9939"
   sodipodi:docname="floor0_clip.svg">
  <metadata
     id="metadata23">
    <rdf:RDF>
      <cc:Work
         rdf:about="">
        <dc:format>image/svg+xml</dc:format>
        <dc:type
           rdf:resource="http://purl.org/dc/dcmitype/StillImage" />
      </cc:Work>
    </rdf:RDF>
  </metadata>
  <defs
     id="defs21" />
  <sodipodi:namedview
     pagecolor="#ffffff"
     bordercolor="#666666"
     borderopacity="1"
     objecttolerance="10"
     gridtolerance="10"
     guidetolerance="10"
     inkscape:pageopacity="0"
     inkscape:pageshadow="2"
     inkscape:window-width="1280"
     inkscape:window-height="750"
     id="namedview19"
     showgrid="false"
     inkscape:zoom="0.8110136"
     inkscape:cx="207.61736"
     inkscape:cy="274.95233"
     inkscape:window-x="0"
     inkscape:window-y="0"
     inkscape:window-maximized="1"
     inkscape:current-layer="svg2"
     fit-margin-top="0"
     fit-margin-left="0"
     fit-margin-right="0"
     fit-margin-bottom="0" />
  <g
     id="surface1"
     transform="translate(-366.84212,-102.52533)">
    <path
       style="fill:none;stroke:#000000;stroke-width:0.60000002;stroke-linecap:round;stroke-linejoin:round;stroke-miterlimit:10;stroke-opacity:1"
       d="m 538.26172,638.64062 0,-45 m -3.72266,45 0,-48.78125 m -148.5,21.60157 0,30.17968 m 37.5,-20.82031 0,18.83985 m -3.77734,0 0,-19.80079 m -30,48 0,-55.5 m 226.67969,-0.71875 0,54 m -446.40235,-27.96093 0,-10.67969 m 456.1211,-15.35938 0,108 m 63,-31.5 0,-85.5 m -9,85.5 0,-76.5 M 161.03906,640.5 l 0,-13.5"
       transform="matrix(0,-1,-1,0,1224,792)"
       id="path5"
       inkscape:connector-curvature="0" />
    <path
       style="fill:none;stroke:#000000;stroke-width:0.60000002;stroke-linecap:round;stroke-linejoin:round;stroke-miterlimit:10;stroke-opacity:1"
       d="m 298.44141,667.85937 -108,0 m 108,9 -108,0 m 240.71875,112.5 -240.71875,0 m 231.71875,9 -240.71875,0 0,-49.5 m 9,-27 0,-54.53906 m -9,54.53906 0,-51.71875 m 9,119.21875 0,-40.5 m -6,0 0,-27 m 3,27 0,-27 m -1.5,27 0,-27 m -4.5,0 0,27 m 9,-27 0,27 -9,0 m 9,-27 -9,0 m 0,-51.71875 L 161.03906,640.5 m 29.40235,26.82031 -20.40235,-29.64062"
       transform="matrix(0,-1,-1,0,1224,792)"
       id="path7"
       inkscape:connector-curvature="0" />
    <path
       style="fill:none;stroke:#000000;stroke-width:0.60000002;stroke-linecap:round;stroke-linejoin:round;stroke-miterlimit:10;stroke-opacity:1"
       d="m 540.66016,798.35937 9,0 0,-9 -9,0 z m 9,0 z m 65.28125,-11.21875 0.66015,0.1211 0.66016,0.29687 0.47656,0.48047 0.36328,0.66016 0.0586,0.66015 -0.0586,0.71875 -0.36328,0.60157 -0.47656,0.53906 -0.66016,0.30078 -0.66015,0.12109 -0.72266,-0.12109 -0.59766,-0.30078 -0.48047,-0.53906 -0.35937,-0.60157 -0.12109,-0.71875 0.12109,-0.66015 0.35937,-0.66016 0.48047,-0.48047 0.59766,-0.29687 z m -183.78125,60.71875 0,-58.5 m 249,58.5 0,-75.71875 m 9,84.71875 0,-84.71875 m -267,84.71875 0,-58.5 m 68.28125,49.5 189.71875,0 m -189.71875,9 198.71875,0 m -225.71875,0 0,-9 m 27,9 0,-9 m -68.28125,9 68.28125,0 m 0,-3 -27,0 m 27,-1.5 -27,0 m 27,-1.5 -27,0 m 27,-3 -59.28125,0"
       transform="matrix(0,-1,-1,0,1224,792)"
       id="path9"
       inkscape:connector-curvature="0" />
    <path
       style="fill:none;stroke:#000000;stroke-width:0.60000002;stroke-linecap:round;stroke-linejoin:round;stroke-miterlimit:10;stroke-opacity:1"
       d="m 548.03906,732.71875 -2.51953,-0.0586 -2.46094,-0.35938 -2.45703,-0.60156 -2.33984,-0.77735 -2.28125,-1.02343 -2.16016,-1.19922 -2.10156,-1.37891 -1.91797,-1.62109 -1.74219,-1.73828 -1.55859,-1.92188 -1.44141,-2.09765 -1.19922,-2.16016 -1.01953,-2.28125 -0.78125,-2.33984 -0.59765,-2.46094 -0.30078,-2.46094 -0.1211,-2.51953 m -92.8789,21.42187 0,-42 m -3.71875,42 0,-53.28125 m 198,11.28125 0,33.41797 m -295.5,-15.41797 0,28.5 m -3.78125,3.71875 0,-32.21875 m 357,12 0,-27 m 9,0 0,27 m -1.5,-27 0,27 m -1.5,-27 0,27 m -345,35.21875 0,-15 m 3.78125,15 0,-18.71875 m 206.82031,1.07813 0,20.64062 m -3.72266,-20.64062 0,24.42187 m 53.33985,-3.78125 21.0625,-34.80078 m -18.90235,38.58203 22.6211,-37.5 m 60,25.5 0,27 m 1.5,-27 0,27 m 1.5,-27 0,27 m -9,0 0,-27 m -311.21875,5.21875 -0.1211,2.33985 -0.35937,2.33984 -0.53907,2.28125 -0.84375,2.21875 -0.95703,2.16016 -1.26172,1.98047 -1.3789,1.92187 -1.5586,1.73828 -1.74218,1.5586 -1.91797,1.4414 -2.04297,1.19922 -2.09766,1.01953 -2.22265,0.78125 -2.27735,0.60157 -2.33984,0.29687 -2.33984,0.12109 m 79.85937,-15.71875 0,30.71875 m 3.77734,-30.71875 0,30.71875 m -83.63671,0 0,-15 m -3.78125,15 0,-15 3.78125,0 m 24,-24 -27.78125,0 m 87.41796,8.28125 -3.77734,0 m 123.23828,-1.5 55.5,0 m -51.77734,-3.78125 49.61719,0 m 78.78125,18.78125 9,0 m -264.71875,-45 -2.28125,0 0,9 9,0 0,-9 -3,0 m -96.0586,-1.85937 0.71875,0.11719 0.60156,0.30078 0.47657,0.48047 0.36328,0.66015 0.11719,0.66016 -0.11719,0.71875 -0.36328,0.60156 -0.47657,0.53906 -0.60156,0.30079 -0.71875,0.12109 -0.72265,-0.12109 -0.59766,-0.30079 -0.48047,-0.53906 -0.35937,-0.60156 -0.0625,-0.71875 0.0625,-0.66016 0.35937,-0.66015 0.48047,-0.48047 0.59766,-0.30078 z m 9.0586,10.07812 -18,0 m 21.78125,-3.71875 -18,0 m 224.82031,1.07813 -3.72266,0 m 132.1211,12.42187 0,-30 m 9,0 0,30 -9,0 m 0,-30 9,0"
       transform="matrix(0,-1,-1,0,1224,792)"
       id="path11"
       inkscape:connector-curvature="0" />
    <path
       style="fill:none;stroke:#000000;stroke-width:0.60000002;stroke-linecap:round;stroke-linejoin:round;stroke-miterlimit:10;stroke-opacity:1"
       d="m 428.16016,681.35937 0,-13.5 m 89.8789,9.78125 0,-12 m 33.72266,19.5 0,20.57813 m -253.32031,-28.85938 9.48046,26.28125 m 19.01954,0 0,-29.28125 m 221.09765,11.28125 0,20.57813 m -224.8789,-2.57813 -15.23829,0 m 213.11719,2.57813 30.72266,0 m -127.32031,-31.85938 -97.5,0 m 171.59765,3.78125 0,7.5 49.5,0 m -72,-3.78125 0,3.78125 -47.8789,0 m 47.8789,-3.78125 -47.8789,0 m 123.60156,3.78125 70.67969,0 m -104.40235,-7.5 -19.5,0 m 181.6211,10.5 9,0 m -150.89844,-49.5 2.33984,0.1211 2.33985,0.29687 2.27734,0.60157 2.22266,0.78125 2.16015,1.01953 1.97656,1.19922 1.92188,1.4414 1.73828,1.5586 1.5625,1.73828 1.4375,1.86328 1.20313,2.03906 1.01953,2.16016 0.77734,2.21875 0.54297,2.28125 0.35937,2.33984 0.1211,2.33984 m -138.72266,-22.98046 2.33985,0.12109 2.33984,0.29687 2.28125,0.60157 2.21875,0.78125 2.10156,1.01953 2.03906,1.19922 1.85938,1.4414 1.74219,1.5586 1.61718,1.74218 1.38282,1.91797 1.19922,1.98047 1.01953,2.16016 0.78125,2.21875 0.59765,2.28125 0.36328,2.33984 0.11719,2.33985 m -120.59765,-18.30079 0,22.5 m -28.5,0 9.48046,-26.21875 m 78.11719,26.21875 0,-22.5 m 37.5,18.30079 24,0 m -19.3789,4.19921 -4.6211,0 m 0,-4.19921 -3.77734,0 m -30,4.19921 30,0 0,-4.19921 m -33.72266,4.19921 -59.09765,0 m 96.59765,0 0,-4.19921 m 94.5,1.98046 16.5,0 0,-3 m 3.72266,0 0,3 78.17969,0 m -54.17969,-3 -27.72266,0 m -207.59765,-21 -19.01954,0 m 26.03907,3.71875 0,-3.71875 m 45,0 0,3.71875 7.07812,0 m -59.09765,0 7.01953,0 m 89.57812,-5.69921 -3.77734,0 m -40.80078,1.98046 7.07812,0 m -59.09765,0 7.01953,0 m 200.57812,-3 3.72266,0 m -262.32031,-87.78125 -85.5,0 m 76.5,-9 -85.5,0 0,15 M 161.03906,600 l 0,-13.5 m 29.40235,-26.82031 -20.40235,29.64062 m -6,37.67969 0,-27 m 3,27 0,-27 m -1.5,27 0,-27 m -4.5,0 0,27 m 9,-27 0,27 -9,0 m 9,-37.67969 0,10.67969 -9,0 M 181.44141,556.85937 161.03906,586.5 m 29.40235,-26.82031 0,-8.82032"
       transform="matrix(0,-1,-1,0,1224,792)"
       id="path13"
       inkscape:connector-curvature="0" />
    <path
       style="fill:none;stroke:#000000;stroke-width:0.60000002;stroke-linecap:round;stroke-linejoin:round;stroke-miterlimit:10;stroke-opacity:1"
       d="m 425.16016,476.10156 0,-28.67969 m 3.78125,85.01954 0,-146.94141 m 153,113.94141 0,-117.30079 m -9,117.30079 0,-102 m -297,153.41796 0,-159.71875 m -9,150.71875 0,-159.71875 m 100.32031,150.30079 0,14.69921 m 3.77734,-10.98046 0,14.69921 m -55.25781,-18.41796 0,14.69921 m 13.5,-14.69921 0,14.69921 m 86.16016,-10.98046 0,14.69921 m 13.5,-14.69921 0,14.69921 m 119.63671,-14.69921 0,14.69921 m -13.5,-14.69921 0,14.69921 m 37.86329,60.78125 0,-85.19921 m 9,76.19921 0,-76.19921 m -177.17969,60.11718 0,29.58203 m 275.39844,-4.5 -107.21875,0 m 116.21875,-9 -107.21875,0 m -158.40235,18.17969 0,-32.46094 m -37.5,23.10157 0,-23.10157 m 32.22266,31.14063 0,-31.14063 m -27,24.35938 0,-24.35938 m 32.27734,32.46094 -37.5,-9.35937 m 21.90235,1.5 -3.17969,3.17968 -3.1836,-3.17968 m 16.6836,3.17968 -13.5,0 m 13.5,-6.78125 -27,0 m 27,-6.71875 -27,0 m 27,-6.78125 -27,0 m 27,-7.5 5.27734,0 m -32.27734,0 -5.22266,0 m 32.22266,0.78125 -27,0 m 181.67969,4.5 -34.67969,0 m 34.67969,-3.78125 -38.40235,0 m -127.55859,-4.91796 -2.76172,0 -0.53906,-0.17969 -0.41797,-0.36328 -0.1836,-0.53907 0,-0.41796 0.1836,-0.54297 0.41797,-0.35938 0.53906,-0.17969 2.76172,0 m -3.90235,-1.4375 3.90235,0 0,-1.68359 -0.24219,-0.53906 -0.17969,-0.17969 -0.35937,-0.17969 -0.53906,0 -0.35938,0.17969 -0.17969,0.17969 -0.17968,0.53906 0,1.68359 m 10.5,-30.0625 13.5,0 m -153,0 58.85937,0 m -58.85937,-3.71875 39.83984,0 m 46.01953,0 5.46094,0 m -5.46094,3.71875 9.23828,0 m -36.23828,-3.71875 0,3.71875 m 27,-3.71875 0,3.71875 m -32.51953,-3.71875 5.51953,0 m 200.27734,3.71875 13.5,0 m -123.41796,-18.41796 0,-37.92188 m 150.78125,31.92188 0,-27 m 3,27 0,-27 m -1.5,27 0,-27 m -4.5,0 0,27 m 9,0 0,-27 m -156.78125,33 -57.89844,0 m 48.17969,3.71875 -44.40235,0 m -55.25781,-3.71875 13.5,0 m 151.79687,0 0,3.71875 m 27,-3.71875 0,3.71875 27,0 m -54,0 -52.13671,0 m 144,0 -24.36329,0 m 24.36329,-3.71875 -64.86329,0 m -27,0 -52.13671,0 m 153,-6 -9,0 m -203.76172,-43.38282 0.66015,0.1211 0.66016,0.30078 0.48047,0.53906 0.30078,0.60156 0.11719,0.71875 -0.11719,0.66016 -0.30078,0.66016 -0.48047,0.48046 -0.66016,0.30079 -0.66015,0.11718 -0.71875,-0.11718 -0.60157,-0.30079 -0.53906,-0.48046 -0.30078,-0.66016 -0.12109,-0.66016 0.12109,-0.71875 0.30078,-0.60156 0.53906,-0.53906 0.60157,-0.30078 z m -39.89844,-6.95703 0,18.41797 m -13.5,-18.41797 0,18.41797 m 99.66016,-18.41797 0,18.41797 9.71875,0 m -109.37891,0 13.5,0 m 252.66016,4.92188 -9,0 m -157.5,-23.33985 9.71875,0 m -109.37891,0 13.5,0 m -20.22266,-84.96094 0,-9 m 27,9 0,-9 m 19.6211,9 0,-9 m 27,9 0,-9 z m 67.55859,-14.69921 -34.5,14.69921 m 84.83984,-14.69921 34.5,14.69921 M 425.16016,429 l 0,-41.87891 M 415.44141,429 l 0,18.42187 9.71875,0 M 415.44141,429 l 9.71875,0 m -116.10157,-43.85938 27,0 m -27,3 27,0 m -27,-1.5 27,0 m 0,4.5 -60.11718,0 m 106.73828,0 -46.6211,0 m 79.67969,0 -33.05859,0 m -27,-6 27,0 m -27,3 27,0 m -27,-1.5 27,0 m 152.39843,4.5 0,6.30079 37.86329,0 m -124.5,-30 -34.5,14.69921 m -77.88282,0 -69.11718,0 m 115.73828,0 -46.6211,0 m 77.88282,0 -31.26172,0 m 79.26172,-5.69921 0,-9 m 27,9 0,-9 m 13.5,0 34.5,14.69921 m -48,-5.69921 -38.70313,0 m 50.33984,0 -11.63671,0 m 93,5.69921 -45,0 m -48,-10.19921 -27,0 m 27,1.5 -27,0 m 27,-3 -27,0 m 27,-3 -40.5,0 m 54,0 -13.5,0"
       transform="matrix(0,-1,-1,0,1224,792)"
       id="path15"
       inkscape:connector-curvature="0" />
    <path
       style="fill:none;stroke:#000000;stroke-width:0.60000002;stroke-linecap:round;stroke-linejoin:round;stroke-miterlimit:10;stroke-opacity:1"
       d="m 386.03906,588.35937 -2.8789,0 m -5.03907,0 -0.96093,0 m -5.03907,0 -0.96093,0 m -5.03907,0 -0.96093,0 m -5.03907,0 -0.96093,0 m -5.03907,0 -0.96093,0 m -5.03907,0 -0.96093,0 m -5.03907,0 -0.96093,0 m -5.03907,0 -0.96093,0 m -0.35938,-4.62109 0,-0.95703 m 0,-5.04297 0,-0.95703 m 0,-5.04297 0,-0.95703 m 0,-5.04297 0,-0.95703 m 0,-5.04297 0,-0.95703 m 0,-5.04297 0,-2.87891 m 200.27734,0 0,1.98047 m -0.0586,5.03907 -0.0586,0.96093 m -0.0625,5.03907 0,0.96093 m -0.0586,5.03907 -0.0586,0.96093 m -0.0625,5.03907 0,0.96093 m -0.0586,5.03907 -0.0586,0.96093 m -0.0625,5.03907 0,1.98046"
       transform="matrix(0,-1,-1,0,1224,792)"
       id="path17"
       inkscape:connector-curvature="0" />
  </g>
  <a
     target="_blank" xlink:href="../tour.html#Laundry"
     id="a14"
     transform="translate(-366.84212,-102.52533)">
    <text
       xml:space="preserve"
       style="font-size:32px;font-style:normal;font-weight:normal;line-height:125%;letter-spacing:0px;word-spacing:0px;fill:#000000;fill-opacity:1;stroke:none;font-family:Sans"
       x="449.79999"
       y="138.55319"
       id="text3060"
       sodipodi:linespacing="125%"><tspan
         sodipodi:role="line"
         x="449.79999"
         y="138.55319"
         id="tspan3062"><tspan
           x="449.79999"
           y="138.55319"
           style="font-size:14.39999962px;fill:#0000ff"
           id="tspan3064">Laundry</tspan><tspan
           dx="0"
           x="508.52499"
           y="138.55319"
           style="font-size:14.39999962px;fill:#0000ff"
           id="tspan3066" /></tspan><tspan
         sodipodi:role="line"
         x="449.79999"
         y="138.55319"
         id="tspan3068"><tspan
           x="449.79999"
           y="156.55319"
           id="tspan3070" /></tspan></text>
  </a>
  <a
     target="_blank" xlink:href="../tour.html#Reuse"
     id="a22"
     transform="translate(-366.84212,-102.52533)">
    <text
       xml:space="preserve"
       style="font-size:32px;font-style:normal;font-weight:normal;line-height:125%;letter-spacing:0px;word-spacing:0px;fill:#000000;fill-opacity:1;stroke:none;font-family:Sans"
       x="380.49106"
       y="299.79199"
       id="text3072"
       sodipodi:linespacing="125%"><tspan
         sodipodi:role="line"
         x="380.49106"
         y="299.79199"
         id="tspan3074"><tspan
           x="380.49106"
           y="299.79199"
           style="font-size:14.39999962px;fill:#0000ff"
           id="tspan3076">Reuse</tspan><tspan
           dx="0"
           x="424.22543"
           y="299.79199"
           style="font-size:14.39999962px;fill:#0000ff"
           id="tspan3078" /></tspan><tspan
         sodipodi:role="line"
         x="380.49106"
         y="299.79199"
         id="tspan3080"><tspan
           x="380.49106"
           y="317.79199"
           id="tspan3082" /></tspan></text>
  </a>
  <text
     xml:space="preserve"
     style="font-size:32px;font-style:normal;font-weight:normal;line-height:125%;letter-spacing:0px;word-spacing:0px;fill:#000000;fill-opacity:1;stroke:none;font-family:Sans"
     x="189.23662"
     y="285.06946"
     id="text3084"
     sodipodi:linespacing="125%"><tspan
       sodipodi:role="line"
       x="189.23662"
       y="285.06946"
       id="tspan3086"><tspan
         x="189.23662"
         y="285.06946"
         style="font-size:14.39999962px;fill:#000000"
         id="tspan3088">Supply</tspan><tspan
         dx="0"
         x="238.31474"
         y="285.06946"
         style="font-size:14.39999962px;fill:#000000"
         id="tspan3090" /></tspan><tspan
       sodipodi:role="line"
       x="189.23662"
       y="285.06946"
       id="tspan3092"><tspan
         x="189.23662"
         y="303.06946"
         id="tspan3094" /></tspan></text>
  <a
     target="_blank" xlink:href="../tour.html#Cave"
     id="a36"
     transform="translate(-366.84212,-102.52533)">
    <text
       xml:space="preserve"
       style="font-size:32px;font-style:normal;font-weight:normal;line-height:125%;letter-spacing:0px;word-spacing:0px;fill:#000000;fill-opacity:1;stroke:none;font-family:Sans"
       x="463.35342"
       y="526.66425"
       id="text3096"
       sodipodi:linespacing="125%"><tspan
         sodipodi:role="line"
         x="463.35342"
         y="526.66425"
         id="tspan3098"><tspan
           x="463.35342"
           y="526.66425"
           style="font-size:14.39999962px;fill:#0000ff"
           id="tspan3100">Study </tspan></tspan><tspan
         sodipodi:role="line"
         x="463.35342"
         y="544.66425"
         id="tspan3102"><tspan
           x="463.35342"
           y="544.66425"
           style="font-size:14.39999962px;fill:#0000ff"
           id="tspan3104">Cave</tspan></tspan></text>
  </a>
  <a
     target="_blank" xlink:href="../tour.html#Printers"
     id="a43"
     transform="translate(-366.84212,-102.52533)">
    <text
       xml:space="preserve"
       style="font-size:32px;font-style:normal;font-weight:normal;line-height:125%;letter-spacing:0px;word-spacing:0px;fill:#000000;fill-opacity:1;stroke:none;font-family:Sans"
       x="453.49109"
       y="397.46054"
       id="text3106"
       sodipodi:linespacing="125%"><tspan
         sodipodi:role="line"
         x="453.49109"
         y="397.46054"
         id="tspan3108"><tspan
           x="453.49109"
           y="397.46054"
           style="font-size:14.39999962px;fill:#0000ff"
           id="tspan3110">Textbooks/ </tspan></tspan><tspan
         sodipodi:role="line"
         x="453.49109"
         y="415.46054"
         id="tspan3112"><tspan
           x="453.49109"
           y="415.46054"
           style="font-size:14.39999962px;fill:#0000ff"
           id="tspan3114">Printers</tspan><tspan
           dx="0"
           x="508.95358"
           y="415.46054"
           style="font-size:14.39999962px;fill:#0000ff"
           id="tspan3116" /></tspan><tspan
         sodipodi:role="line"
         x="453.49109"
         y="415.46054"
         id="tspan3118"><tspan
           x="453.49109"
           y="433.46054"
           id="tspan3120" /></tspan></text>
  </a>
  <a
     target="_blank" xlink:href="../tour.html#Pantry"
     id="a53"
     transform="translate(-366.84212,-102.52533)">
    <text
       xml:space="preserve"
       style="font-size:32px;font-style:normal;font-weight:normal;line-height:125%;letter-spacing:0px;word-spacing:0px;fill:#000000;fill-opacity:1;stroke:none;font-family:Sans"
       x="562.99664"
       y="212.00989"
       id="text3122"
       sodipodi:linespacing="125%"><tspan
         sodipodi:role="line"
         x="562.99664"
         y="212.00989"
         id="tspan3124"><tspan
           x="562.99664"
           y="212.00989"
           style="font-size:14.39999962px;fill:#0000ff"
           id="tspan3126">Pantry</tspan><tspan
           dx="0"
           x="609.12164"
           y="212.00989"
           style="font-size:14.39999962px;fill:#0000ff"
           id="tspan3128" /></tspan><tspan
         sodipodi:role="line"
         x="562.99664"
         y="212.00989"
         id="tspan3130"><tspan
           x="562.99664"
           y="230.00989"
           id="tspan3132" /></tspan></text>
  </a>
  <text
     xml:space="preserve"
     style="font-size:32px;font-style:normal;font-weight:normal;line-height:125%;letter-spacing:0px;word-spacing:0px;fill:#000000;fill-opacity:1;stroke:none;font-family:Sans"
     x="116.24095"
     y="102.57745"
     id="text3134"
     sodipodi:linespacing="125%"><tspan
       sodipodi:role="line"
       x="116.24095"
       y="102.57745"
       id="tspan3136"><tspan
         x="116.24095"
         y="102.57745"
         style="font-size:14.39999962px;fill:#000000"
         id="tspan3138">Boiler </tspan></tspan><tspan
       sodipodi:role="line"
       x="116.24095"
       y="120.57745"
       id="tspan3140"><tspan
         x="116.24095"
         y="120.57745"
         style="font-size:14.39999962px;fill:#000000"
         id="tspan3142">Room</tspan><tspan
         dx="0"
         x="157.24718"
         y="120.57745"
         style="font-size:14.39999962px;fill:#000000"
         id="tspan3144" /></tspan><tspan
       sodipodi:role="line"
       x="116.24095"
       y="120.57745"
       id="tspan3146"><tspan
         x="116.24095"
         y="138.57745"
         id="tspan3148" /></tspan></text>
  <a
     target="_blank" xlink:href="../tour.html#Burrow"
     id="a69"
     transform="translate(-366.84212,-102.52533)">
    <text
       xml:space="preserve"
       style="font-size:32px;font-style:normal;font-weight:normal;line-height:125%;letter-spacing:0px;word-spacing:0px;fill:#000000;fill-opacity:1;stroke:none;font-family:Sans"
       x="634.02319"
       y="232.72687"
       id="text3150"
       sodipodi:linespacing="125%"><tspan
         sodipodi:role="line"
         x="634.02319"
         y="232.72687"
         id="tspan3152"><tspan
           x="634.02319"
           y="232.72687"
           style="font-size:14.39999962px;fill:#0000ff"
           id="tspan3154">Study </tspan></tspan><tspan
         sodipodi:role="line"
         x="634.02319"
         y="250.72687"
         id="tspan3156"><tspan
           x="634.02319"
           y="250.72687"
           style="font-size:14.39999962px;fill:#0000ff"
           id="tspan3158">Burrow</tspan><tspan
           dx="0"
           x="684.92944"
           y="250.72687"
           style="font-size:14.39999962px;fill:#0000ff"
           id="tspan3160" /></tspan><tspan
         sodipodi:role="line"
         x="634.02319"
         y="250.72687"
         id="tspan3162"><tspan
           x="634.02319"
           y="268.72687"
           id="tspan3164" /></tspan></text>
  </a>
  <a
     target="_blank" xlink:href="../tour.html#TV Room"
     id="a79"
     transform="translate(-366.84212,-102.52533)">
    <text
       xml:space="preserve"
       style="font-size:32px;font-style:normal;font-weight:normal;line-height:125%;letter-spacing:0px;word-spacing:0px;fill:#000000;fill-opacity:1;stroke:none;font-family:Sans"
       x="732.64795"
       y="300.78983"
       id="text3166"
       sodipodi:linespacing="125%"><tspan
         sodipodi:role="line"
         x="732.64795"
         y="300.78983"
         id="tspan3168"><tspan
           x="732.64795"
           y="300.78983"
           style="font-size:14.39999962px;fill:#0000ff"
           id="tspan3170">TV Room</tspan><tspan
           dx="0"
           x="796.88544"
           y="300.78983"
           style="font-size:14.39999962px;fill:#0000ff"
           id="tspan3172" /></tspan><tspan
         sodipodi:role="line"
         x="732.64795"
         y="300.78983"
         id="tspan3174"><tspan
           x="732.64795"
           y="318.78983"
           id="tspan3176" /></tspan></text>
  </a>
  <a
     target="_blank" xlink:href="../tour.html#Label Your Shit"
     id="a87"
     transform="translate(-366.84212,-102.52533)">
    <text
       xml:space="preserve"
       style="font-size:32px;font-style:normal;font-weight:normal;line-height:125%;letter-spacing:0px;word-spacing:0px;fill:#000000;fill-opacity:1;stroke:none;font-family:Sans"
       x="701.08466"
       y="445.78925"
       id="text3178"
       sodipodi:linespacing="125%"><tspan
         sodipodi:role="line"
         x="701.08466"
         y="445.78925"
         id="tspan3180"><tspan
           x="701.08466"
           y="445.78925"
           style="font-size:14.39999962px;fill:#0000ff"
           id="tspan3182">Label Your Shit</tspan><tspan
           dx="0"
           x="807.79089"
           y="445.78925"
           style="font-size:14.39999962px;fill:#0000ff"
           id="tspan3184" /></tspan><tspan
         sodipodi:role="line"
         x="701.08466"
         y="445.78925"
         id="tspan3186"><tspan
           x="701.08466"
           y="463.78925"
           id="tspan3188" /></tspan></text>
  </a>
  <a
     target="_blank" xlink:href="../tour.html#Shop"
     id="a95"
     transform="translate(-366.84212,-102.52533)">
    <text
       xml:space="preserve"
       style="font-size:32px;font-style:normal;font-weight:normal;line-height:125%;letter-spacing:0px;word-spacing:0px;fill:#000000;fill-opacity:1;stroke:none;font-family:Sans"
       x="581.73926"
       y="532.58344"
       id="text3190"
       sodipodi:linespacing="125%"><tspan
         sodipodi:role="line"
         x="581.73926"
         y="532.58344"
         id="tspan3192"><tspan
           x="581.73926"
           y="532.58344"
           style="font-size:14.39999962px;fill:#0000ff"
           id="tspan3194">Machine </tspan></tspan><tspan
         sodipodi:role="line"
         x="581.73926"
         y="550.58344"
         id="tspan3196"><tspan
           x="581.73926"
           y="550.58344"
           style="font-size:14.39999962px;fill:#0000ff"
           id="tspan3198">Shop</tspan><tspan
           dx="0"
           x="617.96423"
           y="550.58344"
           style="font-size:14.39999962px;fill:#0000ff"
           id="tspan3200" /></tspan><tspan
         sodipodi:role="line"
         x="581.73926"
         y="550.58344"
         id="tspan3202"><tspan
           x="581.73926"
           y="568.58344"
           id="tspan3204" /></tspan></text>
  </a>
  <text
     xml:space="preserve"
     style="font-size:32px;font-style:normal;font-weight:normal;line-height:125%;letter-spacing:0px;word-spacing:0px;fill:#000000;fill-opacity:1;stroke:none;font-family:Sans"
     x="218.8308"
     y="167.67191"
     id="text3206"
     sodipodi:linespacing="125%"><tspan
       sodipodi:role="line"
       x="218.8308"
       y="167.67191"
       id="tspan3208"><tspan
         x="218.8308"
         y="167.67191"
         style="font-size:14.39999962px;fill:#000000"
         id="tspan3210">Lost &amp; </tspan></tspan><tspan
       sodipodi:role="line"
       x="218.8308"
       y="185.67191"
       id="tspan3212"><tspan
         x="218.8308"
         y="185.67191"
         style="font-size:14.39999962px;fill:#000000"
         id="tspan3214">Found</tspan><tspan
         dx="0"
         x="262.84641"
         y="185.67191"
         style="font-size:14.39999962px;fill:#000000"
         id="tspan3216" /></tspan><tspan
       sodipodi:role="line"
       x="218.8308"
       y="185.67191"
       id="tspan3218"><tspan
         x="218.8308"
         y="203.67191"
         id="tspan3220" /></tspan></text>
</svg>
