<?xml version="1.0" encoding="UTF-8" standalone="no"?>
<svg
   xmlns:dc="http://purl.org/dc/elements/1.1/"
   xmlns:cc="http://creativecommons.org/ns#"
   xmlns:rdf="http://www.w3.org/1999/02/22-rdf-syntax-ns#"
   xmlns:svg="http://www.w3.org/2000/svg"
   xmlns="http://www.w3.org/2000/svg"
   xmlns:xlink="http://www.w3.org/1999/xlink"
   xmlns:sodipodi="http://sodipodi.sourceforge.net/DTD/sodipodi-0.dtd"
   xmlns:inkscape="http://www.inkscape.org/namespaces/inkscape"
   width="633.22559"
   height="826.72656"
   viewBox="0 0 506.58047 661.38125"
   version="1.1"
   id="svg2"
   inkscape:version="0.48.4 r9939"
   sodipodi:docname="floor1.svg">
  <metadata
     id="metadata25">
    <rdf:RDF>
      <cc:Work
         rdf:about="">
        <dc:format>image/svg+xml</dc:format>
        <dc:type
           rdf:resource="http://purl.org/dc/dcmitype/StillImage" />
      </cc:Work>
    </rdf:RDF>
  </metadata>
  <defs
     id="defs23" />
  <sodipodi:namedview
     pagecolor="#ffffff"
     bordercolor="#666666"
     borderopacity="1"
     objecttolerance="10"
     gridtolerance="10"
     guidetolerance="10"
     inkscape:pageopacity="0"
     inkscape:pageshadow="2"
     inkscape:window-width="1280"
     inkscape:window-height="750"
     id="amedview21"
     showgrid="false"
     inkscape:zoom="0.64834012"
     inkscape:cx="16.044483"
     inkscape:cy="350.08508"
     inkscape:window-x="0"
     inkscape:window-y="0"
     inkscape:window-maximized="1"
     inkscape:current-layer="svg2"
     fit-margin-top="0"
     fit-margin-left="0"
     fit-margin-right="0"
     fit-margin-bottom="0" />
  <g
     id="surface1"
     transform="matrix(0,-1,-1,0,854.58125,758.28047)">
    <path
       style="fill:none;stroke:#000000;stroke-width:0.60000002;stroke-miterlimit:10;stroke-opacity:1"
       d="m 703.98047,837.78125 0,-474.78125 m -347.33985,234 0,29.64062 m 214.6211,-36.42187 0,65.28125 m -251.46094,-45 0,-3.78125 m 23.21875,3.78125 0,-19.80078 m 51.96094,23.9414 0,-7.92187 m 196.32031,6.30078 40.14063,0 0,-18.48047 -40.14063,0 z m 40.14063,0 z m -348.96094,29.69922 0,-54.29688 m -3.78125,16.13672 -12.71875,12.72266 m 12.71875,29.21875 0,-58.07813 m -163.67969,23.9375 0,-36 m -2.21875,0 0,36 m 4.5,0 0,-36 M 370.19922,610.5 l 0,-13.5 m 217.5625,-6.78125 0,33 m 48.71875,-33 0,23.28125 m 4.5,-30 0,30 m -11.28125,14.21875 1.01953,0.12109 0.96094,0.35938 0.89843,0.60156 0.84375,0.83984 0.65625,1.01954 0.54297,1.26171 0.35938,1.31641 0.12109,1.44141 -0.12109,1.3789 -0.35938,1.32032 -0.54297,1.26171 -0.65625,1.01954 -0.84375,0.83984 -0.89843,0.60156 -0.96094,0.35938 -1.01953,0.11718 -0.96094,-0.11718 -0.95703,-0.35938 -0.90234,-0.60156 -0.83985,-0.83984 -0.71875,-1.01954 -0.53906,-1.26171 -0.30078,-1.32032 -0.1211,-1.3789 0.1211,-1.44141 0.30078,-1.31641 0.53906,-1.26171 0.71875,-1.01954 0.83985,-0.83984 0.90234,-0.60156 0.95703,-0.35938 z m 0,-0.77734 1.19922,0.17968 1.08203,0.41797 1.07812,0.66016 0.96094,0.96094 0.71875,1.14062 0.60156,1.37891 0.35938,1.4414 0.12109,1.5586 -0.12109,1.5 -0.35938,1.4414 -0.60156,1.37891 -0.71875,1.14062 -0.96094,0.96094 -1.07812,0.71875 -1.08203,0.41797 -1.19922,0.12109 -1.14063,-0.12109 -1.13672,-0.41797 -1.02343,-0.71875 -0.95703,-0.96094 -0.78125,-1.14062 -0.60157,-1.37891 -0.35937,-1.4414 -0.1211,-1.5 0.1211,-1.5586 0.35937,-1.4414 0.60157,-1.37891 0.78125,-1.14062 0.95703,-0.96094 1.02343,-0.66016 1.13672,-0.41797 z m -43.32031,12.41796 0.12109,-1.07812 0.42187,-1.08203 0.65625,-1.01953 0.90235,-0.89844 1.07812,-0.72266 1.20313,-0.53906 1.3789,-0.35937 1.4375,-0.17969 1.38282,0.0586 1.4375,0.24219 1.26172,0.48047 1.19921,0.66015 0.96094,0.77735 0.78125,0.96094 0.53906,1.01953 0.30079,1.14062 0,1.07813 -0.30079,1.14062 -0.53906,1.01953 -0.78125,0.96094 -0.96094,0.78125 -1.19921,0.66016 -1.26172,0.48047 -1.4375,0.23828 -1.38282,0.0586 -1.4375,-0.11719 -1.3789,-0.35937 -1.20313,-0.60156 -1.07812,-0.71875 -0.90235,-0.90235 -0.65625,-0.96094 L 586.5,640.5 z m 0.72265,0 0.11719,-0.96093 0.42187,-0.95703 0.59766,-0.83985 0.78125,-0.83984 1.08203,-0.66016 1.13672,-0.48047 1.32031,-0.30078 1.38282,-0.12109 1.32031,0.12109 1.3164,0.30078 1.20313,0.48047 1.01953,0.66016 0.77734,0.83984 0.66016,0.83985 0.36328,0.95703 0.11719,0.96093 -0.11719,0.96094 -0.36328,0.96094 -0.66016,0.89844 -0.77734,0.78125 -1.01953,0.66015 -1.20313,0.48047 -1.3164,0.29688 -1.32031,0.12109 -1.38282,-0.12109 -1.32031,-0.29688 -1.13672,-0.48047 -1.08203,-0.66015 -0.78125,-0.78125 -0.59766,-0.89844 -0.42187,-0.96094 z m -233.76172,84.53907 -0.12109,0.96093 -0.35938,0.96094 -0.59765,0.89844 -0.83985,0.83984 -1.02343,0.72266 -1.25782,0.53906 -1.32031,0.30078 -1.4414,0.11719 -1.37891,-0.11719 -1.32031,-0.30078 -1.25782,-0.53906 -1.02343,-0.72266 -0.83985,-0.83984 -0.59765,-0.89844 -0.35938,-0.96094 -0.12109,-0.96093 0.12109,-1.01953 0.35938,-0.95704 0.59765,-0.90234 0.83985,-0.83984 1.02343,-0.71875 1.25782,-0.48047 1.32031,-0.35938 1.37891,-0.12109 1.4414,0.12109 1.32031,0.35938 1.25782,0.48047 1.02343,0.71875 0.83985,0.83984 0.59765,0.90234 0.35938,0.95704 z m 0.78125,0 -0.17968,1.14062 -0.42188,1.14063 -0.66016,1.01953 -0.96093,0.96094 -1.13672,0.78125 -1.38281,0.53906 -1.4375,0.35937 -1.5625,0.1211 -1.5,-0.1211 -1.4375,-0.35937 -1.38282,-0.53906 -1.13672,-0.78125 -0.96093,-0.96094 -0.72266,-1.01953 -0.41797,-1.14063 -0.12109,-1.14062 0.12109,-1.19922 0.41797,-1.14063 0.72266,-1.01953 0.96093,-0.96094 1.13672,-0.77734 1.38282,-0.53906 1.4375,-0.36328 1.5,-0.11719 1.5625,0.11719 1.4375,0.36328 1.38281,0.53906 1.13672,0.77734 0.96093,0.96094 0.66016,1.01953 0.42188,1.14063 z m 15.17969,-0.29688 -1.08203,-0.12109 -1.07813,-0.42188 -1.01953,-0.66015 -0.83984,-0.89844 -0.78125,-1.07813 -0.53906,-1.20312 -0.35938,-1.37891 -0.17969,-1.4414 0.0586,-1.37891 0.23828,-1.44141 0.48047,-1.25781 0.66015,-1.19922 0.83985,-0.96093 0.90234,-0.78125 1.07813,-0.53907 1.08203,-0.30078 1.13672,0 1.08203,0.30078 1.01953,0.53907 0.96094,0.78125 0.83984,0.96093 0.59766,1.19922 0.48047,1.25781 0.30078,1.44141 0.0586,1.37891 -0.17969,1.4414 -0.35937,1.37891 -0.59766,1.20312 -0.72265,1.07813 -0.89844,0.89844 -0.96094,0.66015 -1.07812,0.42188 z m 0,-0.72265 -0.96094,-0.11719 -0.89843,-0.42188 -0.90235,-0.60156 -0.77734,-0.77734 -0.66016,-1.08203 -0.54297,-1.14063 -0.29687,-1.31641 -0.0625,-1.38281 0.0625,-1.32031 0.29687,-1.32031 0.54297,-1.13672 0.66016,-1.08203 0.77734,-0.78125 0.90235,-0.59766 0.89843,-0.42187 0.96094,-0.11719 0.96094,0.11719 0.95703,0.42187 0.90234,0.59766 0.77735,0.78125 0.66015,1.08203 0.48047,1.13672 0.30078,1.32031 0.1211,1.32031 -0.1211,1.38281 -0.30078,1.31641 -0.48047,1.14063 -0.66015,1.08203 -0.77735,0.77734 -0.90234,0.60156 -0.95703,0.42188 z m 0,0"
       trasform="matrix(0,-1,-1,0,1224,792)"
       id="path5"
       inkscape:connector-curvature="0" />
    <path
       style="fill:none;stroke:#000000;stroke-width:0.60000002;stroke-miterlimit:10;stroke-opacity:1"
       d="m 632.46094,775.32031 -9,0 0,-27 9,0 z m -9,0 z m -424.80078,-12.96094 36,0 0,9 -36,0 z m -55.44141,-13.4375 27,0 0,22.5 -27,0 z m 0,0"
       trasform="matrix(0,-1,-1,0,1224,792)"
       id="path7"
       inkscape:connector-curvature="0" />
    <path
       style="fill:none;stroke:#000000;stroke-width:0.60000002;stroke-miterlimit:10;stroke-opacity:1"
       d="m 734.28125,766.5 -33.96094,6.71875 m -344.33984,1.5 L 379.19922,735 m -26.21875,0 0,39.71875 m 3,-39.71875 0,39.71875 m 14.21875,0 0,-9 M 328.98047,778.5 l 0,-10.14063 m 3.71875,6.35938 0,-6.35938 m 50.28125,10.14063 0,-96.78125 m 118.5,151.5625 0,-141.0625 m 3.71875,141.0625 0,-105.0625 m 72.0625,105.0625 0,-68.28125 m 3.71875,68.28125 0,-72.0625 m -298.5,13.5 0,-9 m -3.78125,9 0,-9 m 357.78125,-13.5 0,28.5 m -498.78125,-6 0,-31.5 m -4.5,36 0,-36 m 507.78125,9 0,28.5 m -411.78125,73.5625 0,-4.5 m 24,4.5 0,-4.5 m 90,4.5 0,-4.5 m 24,4.5 0,-4.5 m 15.78125,-12 0,16.5 m -236.28125,0 0,-27 m 106.5,27 90,0 m -196.5,0 106.5,0 m 129.78125,0 -39.78125,0 m -90,-4.5 90,0 m -192,-71.28125 142.5,0 m -142.5,-3.78125 127.5,0 m -114.66016,26.82031 18,0 0,18 -18,0 z m 0,0"
       trasform="matrix(0,-1,-1,0,1224,792)"
       id="path9"
       inkscape:connector-curvature="0" />
    <path
       style="fill:none;stroke:#000000;stroke-width:0.60000002;stroke-miterlimit:10;stroke-opacity:1"
       d="m 148.92187,827.28125 0,-24 m -2.22265,0 0,24 m 4.5,0 0,-24 m 5.40234,20.75781 31.5,0 0,22.5 -31.5,0 z m -5.40234,25.74219 0,-22.5 m 60.83984,10.19922 18,0 0,9 -18,0 z m -60.83984,12.30078 78,0 m 24,2.21875 -24,0 m 0,-2.21875 24,0 m -106.5,-22.5 4.5,0 m 0,-24 0,-28.5625 m -4.5,4.5 0,24.0625 4.5,0 m -4.5,-24.0625 -13.5,0 m 18,-4.5 -13.5,0 m 413.03906,49.92187 -18,0 0,-18 18,0 z m -18,0 z m 41.88281,6.30079 -22.5,0 0,-31.5 22.5,0 z m -22.5,0 z m 60.17969,-7.26172 -18,0 0,-18 18,0 z m -18,0 z m 38.21875,7.08203 -18,0 0,-31.5 18,0 z m -18,0 z m -226.55859,-23.33985 45.05859,0 0,22.5 -45.05859,0 z m 0,0"
       trasform="matrix(0,-1,-1,0,1224,792)"
       id="path11"
       inkscape:connector-curvature="0" />
    <path
       style="fill:none;stroke:#000000;stroke-width:0.60000002;stroke-miterlimit:10;stroke-opacity:1"
       d="m 328.98047,849.78125 0,-71.28125 m 3.71875,71.28125 0,-71.28125 m 303.78125,54.78125 0,-28.5 m 4.5,0 0,33 63,0 m -321,-18.42188 0,13.92188 m -3.78125,0 0,-13.92188 m 74.28125,13.92188 81,0 m -81,4.5 81,0 m -155.28125,-4.5 0,16.5 -12,0 m 0,2.21875 -24,0 m 24,-2.21875 -24,0 m 110.28125,-12 0,-4.5 m -21,4.5 0,-4.5 m -7.5,4.5 0,-4.5 m -21,0 0,4.5 21,0 m 28.5,0 -28.5,0 m -42,0 21,0 m 21,-2.28125 -21,0 m 49.5,0 -21,0 m -7.5,-2.21875 -21,0 m 49.5,0 -28.5,0 m -45.78125,0 24.78125,0 m 154.5,4.5 82.5,0 m -4.5,-4.5 -78,0 0,4.5 m -24,-4.5 0,4.5 24,0 m 0,-2.28125 -24,0 m 24,-2.21875 -24,0 m -91.08203,-12.35938 22.5,0 0,9 -22.5,0 z m -64.19922,-1.5625 3.78125,0 m 18.53906,-34.4375 18,0 0,18 -18,0 z m 237.24219,19.85938 0,-24.0625 m 2.21875,0 0,24.0625 m -4.5,0 0,-24.0625 M 317.69922,802.5 l -2.33985,-0.12109 -2.33984,-0.35938 -2.28125,-0.53906 -2.21875,-0.78125 -2.09766,-1.01953 -2.04296,-1.19922 -1.91797,-1.44141 -1.74219,-1.55859 -1.55859,-1.74219 -1.37891,-1.91797 -1.26172,-1.98047 -0.96094,-2.16015 -0.83984,-2.21875 -0.53906,-2.28125 -0.35938,-2.33985 -0.12109,-2.33984 m 24,0 0,24 m 61.5,-10.14063 0,-13.85937 m 3.78125,0 0,13.85937 -3.78125,0 m 261.78125,12.42188 -4.5,0 m -307.5,-26.28125 54,0 m -65.28125,-3.78125 0,3.78125 m -24,-3.78125 0,3.78125 m 24,0 11.28125,0 m -11.28125,-3.78125 11.28125,0 m 3.71875,0 37.5,0 m -87.71875,0 11.21875,0 m 347.28125,6 -4.5,0"
       trasform="matrix(0,-1,-1,0,1224,792)"
       id="path13"
       inkscape:connector-curvature="0" />
    <path
       style="fill:none;stroke:#000000;stroke-width:0.60000002;stroke-miterlimit:10;stroke-opacity:1"
       d="m 137.69922,693.71875 0,-44.09766 m -4.5,44.09766 0,-42.71875 m 455.28125,41.21875 0,-3.71875 m 24,3.71875 0,-3.71875 m 52.5,-26.28125 -0.1211,2.40234 -0.35937,2.27735 -0.53906,2.33984 -0.78125,2.16016 -1.01953,2.16015 -1.19922,2.04297 -1.44141,1.85938 -1.55859,1.73828 -1.74219,1.62109 -1.91797,1.37891 -1.98047,1.19922 -2.16015,1.02343 -2.21875,0.77735 -2.28125,0.60156 -2.33985,0.30078 -2.33984,0.11719 m -170.28125,6 0,-3.71875 m 24,3.71875 0,-3.71875 m 63.78125,3.71875 0,-3.71875 m -24,3.71875 0,-3.71875 m -252,53.21875 0,-95.21875 m -3.78125,82.5 0,-71.28125 m 68.69922,29.22266 20.04297,13.25781 m 11.75781,31.01953 0,-45.71875 m 257.28125,0.71875 0,42 m 4.5,-42 0,42 m -386.28125,37.5 0.12109,-2.33984 0.35938,-2.33985 0.53906,-2.27734 0.83984,-2.22266 0.96094,-2.09765 1.19922,-2.04297 1.44141,-1.85938 1.55859,-1.73828 1.74219,-1.62109 1.91797,-1.37891 2.04296,-1.19922 2.09766,-1.02344 2.21875,-0.77734 2.28125,-0.60156 2.33984,-0.35938 2.33985,-0.12109 m 0,24 -24,0 M 250.98047,729 l 27.71875,0 m -31.5,3.71875 31.5,0 m -130.32031,-6.29688 18,0 0,18 -18,0 z m -10.67969,16.79688 0,-21 m -2.27735,0 0,21 m -2.22265,0 0,-21 m 114,10.5 0,-23.75781 m -114,34.25781 4.5,0 m -4.5,-28.5 0,-21 m 2.22265,0 0,21 m 2.27735,0 0,-21 M 250.98047,729 l 0,-20.03906 m -117.78125,13.25781 0,-7.5 m 4.5,0 0,7.5 -4.5,0 m 0,-7.5 4.5,0 m 109.5,-5.75781 3.78125,0 m -117.78125,-15.24219 4.5,0 m 593.28125,73.44141 0,-38.94141 m -90,24 0,-24 m -2.21875,0 0,24 m -2.28125,0 0,-24 m -259.80078,3 -14.75782,0 0,-7.61719 14.75782,0 z m -47.69922,10.14062 0,-33.35937 m 3.71875,23.21875 0,-22.07813 M 560.76172,765 l 0,-72.78125 m 3.71875,69 0,-69 m -5.03906,72.0625 -9,0 0,-36 9,0 z m -9,0 z M 355.98047,735 l 18,30.71875 m -72,2.64062 0.12109,-2.46093 0.29688,-2.45703 0.60156,-2.46094 0.78125,-2.33985 1.01953,-2.28125 1.19922,-2.21875 1.44141,-2.03906 1.55859,-1.92187 1.73828,-1.73828 1.92188,-1.6211 2.10156,-1.3789 2.16015,-1.26172 2.27735,-0.96094 2.40234,-0.83984 2.39844,-0.53907 2.46094,-0.35937 2.51953,-0.1211 M 379.19922,735 l 0,30.71875 -9,0 m -68.21875,2.64062 30.71875,0 m -54,-2.64062 3.78125,0 M 560.76172,765 l 16.5,0 m -12.78125,-3.78125 16.5,0 m 60,-9 -4.5,0 m -357.78125,-10.5 0,-9 m 54,8.64062 0,-6.35937 m -54,6.71875 3.78125,0 m 50.21875,-0.35938 -3.71875,0 m 3.71875,-10.14062 46.5,0 m -46.5,3.78125 46.5,0 m 338.28125,5.21875 0,25.5 3.17969,-3.17969 m -3.17969,3.17969 -3.17969,-3.17969 m -10.32031,3.17969 27,0 m -27,-6.71875 27,0 m -27,-6.78125 27,0 M 699,743.57812 l -2.76172,0 -0.53906,-0.17968 -0.35938,-0.35938 -0.17968,-0.53906 0,-0.35938 0.17968,-0.53906 0.35938,-0.36328 0.53906,-0.17969 2.76172,0 m -3.83984,-1.5 3.83984,0 0,-1.61718 -0.17969,-0.60157 -0.17969,-0.17968 -0.35937,-0.17969 -0.54297,0 -0.35937,0.17969 -0.17969,0.17968 -0.17969,0.60157 0,1.61718 m 20.46094,0.66016 -17.64063,0 m -87.35937,-24 -2.33985,-0.0586 -2.33984,-0.35938 -2.28125,-0.60156 -2.21875,-0.77735 -2.10156,-1.02343 -2.03906,-1.19922 -1.92188,-1.37891 -1.73828,-1.62109 -1.55859,-1.73828 -1.44141,-1.85938 -1.19922,-2.04297 -0.96094,-2.09765 -0.83984,-2.22266 -0.53906,-2.33984 -0.35938,-2.27735 -0.12109,-2.40234 m 24,0 0,24 m -56.21875,-19.85938 -0.1211,2.33985 -0.35937,2.33984 -0.60156,2.28125 -0.78125,2.21875 -1.01953,2.16016 -1.19922,1.98047 -1.37891,1.92187 -1.62109,1.73828 -1.73828,1.5586 -1.86329,1.4414 -2.03906,1.19922 -2.09765,1.01953 -2.22266,0.78125 -2.27734,0.60157 -2.33985,0.29687 -2.40234,0.12109 m 26.28125,-4.14062 -2.33985,-0.0586 -2.33984,-0.35938 -2.28125,-0.60156 -2.21875,-0.77735 -2.16016,-1.02343 -1.98046,-1.19922 -1.92188,-1.37891 -1.73828,-1.62109 -1.55859,-1.73828 -1.44141,-1.85938 -1.19922,-2.04297 -1.01953,-2.09765 -0.78125,-2.22266 -0.53906,-2.33984 -0.35938,-2.27735 -0.12109,-2.40234 m 24,0 0,24 m -63.78125,0 -2.33985,-0.0586 -2.33984,-0.35938 -2.28125,-0.60156 -2.21875,-0.77735 -2.09766,-1.02343 -2.04296,-1.19922 -1.85938,-1.37891 -1.73828,-1.62109 -1.62109,-1.73828 -1.37891,-1.85938 -1.20313,-2.04297 -1.01953,-2.09765 -0.77734,-2.22266 -0.60156,-2.33984 -0.35938,-2.27735 -0.12109,-2.40234 m 24,0 0,24 m 10.5,8.28125 0,-32.28125 m -45,18.78125 0,-18.78125 m 3.78125,22.5 0,-22.5 m -96.53906,7.98047 -1.38282,1.92187 -1.61718,1.73828 -1.74219,1.5625 -1.85938,1.4375 -2.03906,1.19922 -2.10156,1.01953 -2.21875,0.78125 -2.28125,0.60157 -2.33985,0.35937 -2.33984,0.1211 -2.33984,-0.1211 -2.33985,-0.30078 -2.28125,-0.59766 -2.21875,-0.78125 -2.16015,-1.01953 -2.03907,-1.19922 m 12.23829,17.57813 0.54296,0.12109 0.35938,0.35938 0.11719,0.48047 -0.11719,0.48047 -0.35938,0.35937 -0.54296,0.12109 -0.48047,-0.12109 -0.35938,-0.35937 -0.11719,-0.48047 0.11719,-0.48047 0.35938,-0.35938 z m 102.24218,-9.78125 15.35938,0 M 448.62109,711 l 11.57813,0 m -65.57813,0 0,3.71875 m 54,-3.71875 0,3.71875 M 382.98047,711 l 11.64062,0 m -11.64062,3.71875 11.64062,0 m 137.57813,5.64062 0,7.85938 -27,0 m 27,-7.85938 -3.71875,0 0,4.14063 -23.28125,0 m 135.78125,3.71875 -4.5,0 M 334.14062,706.92187 331.01953,704.87891 328.98047,708 m 3.71875,1.14062 1.4414,-2.21875 m 129.83985,-14.70312 6.71875,0 m -87.71875,0 77.21875,0 m 104.28125,0 24,0 m -56.28125,4.14062 0,-4.14062 m -3.71875,4.14062 0,-4.14062 m 27.78125,4.14062 -27.78125,0 m -33.78125,-4.14062 6.78125,0 m 57,0 2.28125,0 m -55.5625,0 23.28125,0 m 3.71875,0 2.28125,0 m 78,0 24,0 m 67.5,36 27,0 m -480,-70.5 27.71875,0 m -2.09766,-25.55859 -8.52344,8.46093 m -2.09765,-23.33984 9.53906,9.53906 m -137.82031,22.80078 -4.85938,-7.08203 m 0.35938,8.46094 -4.07813,-5.94141 m 121.85938,36.90235 0,-24.24219 m -15.42188,0 11.64063,11.70312 0,12.53907 3.78125,0 m -113.28125,-24.24219 97.85937,0 M 129.12109,645.05859 115.5,625.32031 m 3.71875,-2.58203 13.62109,19.80078 m -15.48046,-18.48047 13.62109,19.74219 M 240.53906,642.71875 253.26172,630 l 9.53906,9.53906 m -129.83984,3.17969 107.57812,0 m -107.69922,-0.17969 -3.71875,2.51953 m 138.95703,-4.4375 -5.27734,-1.08203 m -145.5,-19.55859 0,-7.6211 m -4.5,0 0,9 2.69922,3.96094 3.71875,-2.58203 -1.91797,-2.75781 m -4.5,-7.6211 4.5,0 M 394.98047,655.5 l 0,-16.85938 m -78,7.85938 0,9 m 261.78125,-32.28125 0,28.5 M 636.48047,631.5 l 0,20.21875 m 4.5,-20.21875 0,30.71875 m -13.5,15.78125 -2.33985,-0.12109 -2.33984,-0.35938 -2.28125,-0.59766 -2.16016,-0.90234 -2.09765,-1.01953 -1.98047,-1.32031 -1.85938,-1.44141 -1.68359,-1.67969 -1.4375,-1.85937 -1.32031,-1.98047 -1.01953,-2.09766 -0.90235,-2.16015 -0.59765,-2.28125 -0.35938,-2.33985 -0.12109,-2.33984 m 22.5,0 0,22.5 m -279.1211,7.5 30.83985,0 m 3.78125,-3.78125 -36.60156,0 -2.09766,3.17969 m 4.07812,0.60156 -0.96093,1.44141 -3.11719,-2.04297 m 38.69922,3.60156 87.71875,0 m 87.78125,0 30,0 m -93.78125,0 39.78125,0 m 78,0 24,0 m 4.5,-2.28125 -4.5,0 m -88.5,-30.71875 -231,0 m 319.5,0 0,6.71875 m -88.5,0.78125 0,-7.5 m 28.5,0 0,7.5 -28.5,0 m 117,-0.78125 -28.5,0 M 571.26172,655.5 l 33.71875,0 m -26.21875,-3.78125 26.21875,0 0,3.78125 m 22.5,-3.78125 0,3.78125 9,0 m -9,-3.78125 9,0 m -240.66016,-22.07813 3.83985,0 0,-1.32031 -0.17969,-0.53906 -0.35938,-0.35938 -0.35937,-0.18359 -0.54297,-0.17969 -0.89844,0 -0.53906,0.17969 -0.42188,0.18359 -0.35937,0.35938 -0.17969,0.53906 z m 0,-3.83984 3.83985,0 -3.83985,-2.58203 3.83985,0 m -83.82032,6.42187 3.83985,0 0,-1.32031 -0.17969,-0.53906 -0.35938,-0.35938 -0.35937,-0.18359 -0.54297,-0.17969 -0.95703,0 -0.54297,0.17969 -0.35937,0.18359 -0.35938,0.35938 -0.17969,0.53906 z m 0,-3.83984 3.83985,0 -3.83985,-2.58203 3.83985,0 m 3.12109,-12.71875 0,32.21875 m 6.71875,-32.21875 0,32.21875 m 6.78125,-32.21875 0,32.21875 m 6.71875,-32.21875 0,32.21875 m 51.96094,-28.07813 2.33984,0.1211 2.33985,0.29687 2.28125,0.60157 2.21875,0.78125 2.10156,1.01953 2.03906,1.19922 1.91797,1.3789 1.74219,1.6211 1.55859,1.73828 1.37891,1.86328 1.26172,2.03906 0.96093,2.16016 0.83985,2.21875 0.53906,2.28125 0.35937,2.27734 0.1211,2.40234 m -27.78125,0 0,-24 m -6.96094,-4.14062 0,32.21875 M 377.21875,610.5 l 0,32.21875 M 370.19922,610.5 l 0,32.21875 M 640.98047,631.5 l 0,-18 m -2.21875,0 0,18 m -2.28125,0 0,-18 m -359.87891,18.66016 -1.08203,-5.33985 m 295.74219,15.89844 -176.28125,0 m -3.78125,-4.07813 0,4.07813 -78,0 m -27,3.78125 0,-3.78125 m 27,3.78125 0,-3.78125 z m -27,0 -7.5,0 m 38.28125,0 -3.78125,0 m -27,-3.78125 -3.71875,0 m 136.5,-4.07813 -27.78125,0 m 195.17969,8.09766 -7.61719,0 0,-14.75781 7.61719,0 z m -7.61719,0 z m 52.55859,-13.07812 0.48047,0.12109 0.35938,0.35937 0.12109,0.53907 -0.12109,0.48047 -0.35938,0.35937 -0.48047,0.12109 -0.48047,-0.12109 -0.35937,-0.35937 -0.17969,-0.48047 0.17969,-0.53907 0.35937,-0.35937 z m 9.66016,-2.16016 -4.5,0 m -316.6211,-4.85938 75,0 M 391.19922,610.5 l -71.39844,0 m 71.39844,0 0,4.14062 3.78125,0 m 192.78125,8.57813 -9,0 m 57.71875,-6 -48.71875,0 m 53.21875,-3.71875 -4.5,0"
       trasform="matrix(0,-1,-1,0,1224,792)"
       id="path15"
       inkscape:connector-curvature="0" />
    <path
       style="fill:none;stroke:#000000;stroke-width:0.60000002;stroke-miterlimit:10;stroke-opacity:1"
       d="m 133.19922,522.71875 0,-159.71875 m 358.3789,48 0,68.21875 m -3.77734,0 0,-68.21875 m -264.60156,75.71875 0,-47.21875 m -4.5,47.21875 0,-47.21875 m 342.0625,43.5 0,-72 m 4.5,76.5 0,-81 m 192.71875,177 0,-72 m -9,72 0,-72 m -9,72 0,-72 m -9,72 0,-72 m -9,72 0,-72 m -9,72 0,-72 m -165.71875,14.03906 0,44.46094 m -147.0625,-53.28125 -0.1211,2.33984 -0.29687,2.33985 -0.60156,2.28125 -0.78125,2.21875 -1.01953,2.16015 -1.19922,2.04297 -1.44141,1.85938 -1.55859,1.73828 -1.73828,1.5625 -1.92188,1.4375 -1.98047,1.19922 -2.16015,1.02343 -2.21875,0.77735 -2.28125,0.60156 -2.33985,0.30078 -2.33984,0.11719 0,-24 m -97.5,26.70312 0,-28.92187 m 3.78125,28.92187 0,-28.92187 m 87.71875,79.67969 0,-77.46094 m -37.85938,49.5 0,-49.5 M 529.19922,534 l 0,-21.78125 m 4.5,21.78125 0,-21.78125 m -358.5,10.5 0,4.5 m 22.5,-4.5 0,4.5 m 176.28125,79.5 0,-93.71875 m -150.78125,14.21875 0,-9 m -90,19.5 0,-15 m 90,4.5 55.5,0"
       trasform="matrix(0,-1,-1,0,1224,792)"
       id="path17"
       inkscape:connector-curvature="0" />
    <path
       style="fill:none;stroke:#000000;stroke-width:0.60000002;stroke-miterlimit:10;stroke-opacity:1"
       d="m 119.21875,565.98047 -1.91797,2.75781 m -4.5,7.62109 0,-9 m 4.5,1.37891 0,7.62109 -4.5,0 M 129.12109,543.66016 115.5,563.39844 m 3.71875,2.58203 13.62109,-19.80078 m -15.48046,18.53906 13.62109,-19.79688 m -11.76172,21.0586 -3.71875,-2.58203 -2.69922,3.96093 m 24.89844,-40.14062 0,11.94141 -4.85938,7.01953 m 0.35938,-8.46094 -4.07813,5.94141 3.71875,2.51953 m 4.85938,-18.96094 85.5,0 M 569.76172,570 l -3.24219,-3.17969 m 3.24219,16.67969 0,-27 m -9,27 0,-54 m 11.9375,55.80078 6.72265,-32.10156 M 351.66016,541.5 l 0,40.14062 M 334.19922,570 l -3.71875,0 0,-3.78125 3.71875,0 z m -3.71875,0 z m 201,-7.5 0,21 m -2.28125,-21 0,21 m 4.5,-21 0,21 m -159.71875,11.57812 -45.71875,-10.61718 m 45.71875,13.3789 -45.71875,-10.62109 m 200.9375,3 0,-6.71875 M 353.46094,600.17969 356.64062,597 l 3.17969,3.17969 m -20.51953,6.53906 0,-16.91797 m 55.67969,16.91797 -21,0 m -34.67969,0 -19.5,0 m 50.39844,-3 -27.17969,0 M 370.19922,597 l -27.17969,0 m -64.32031,-8.57813 3.78125,0 m 62.64062,-0.0625 25.07813,0 m 223.67969,14.58204 0.42187,0.11718 0.30078,0.30078 0.11719,0.42188 -0.11719,0.41797 -0.30078,0.30078 -0.42187,0.12109 -0.41797,-0.12109 -0.35938,-0.30078 -0.12109,-0.41797 0.12109,-0.42188 0.35938,-0.30078 z m -22.61719,-12.72266 -42.0625,0 m 107.28125,0 -48.71875,0 M 333.05859,570 l 0,15.53906 m -1.5,-15.53906 0,15.23828 m 23.28125,-6.77734 -3.17968,3.17968 -3.17969,-3.17968 m -15.42188,3.17968 37.14063,0 m -37.14063,-6.78125 37.14063,0 m -36,-6.71875 36,0 M 640.98047,583.5 l -111.78125,0 m 37.32031,-10.32031 3.24219,-3.17969 -22.5,0 m 156.71875,13.5 54,0 M 533.69922,555 l 0,-21 m -2.21875,0 0,21 m -2.28125,-21 0,28.5 m 4.5,-7.5 0,7.5 -4.5,0 m 49.5625,-6 -45.0625,0 m 0,-1.5 -4.5,0 m 31.5625,-7.5 -27.0625,0 m -203.33985,-2.57813 -2.75781,0 -0.54297,-0.18359 -0.35937,-0.35937 -0.17969,-0.53907 0,-0.35937 0.17969,-0.53906 0.35937,-0.36329 0.54297,-0.23828 2.75781,0 m -3.83984,-1.4414 3.83984,0 0,-1.61719 -0.17968,-0.60156 L 330,538.5 l -0.35938,-0.17969 -0.60156,0 -0.35937,0.17969 -0.17969,0.17969 -0.17969,0.60156 0,1.61719 m -49.62109,2.52343 3.78125,0 m 48.05859,-1.92187 21.1211,0 m 209.10156,-3 -27.0625,0 m 0,-4.5 -4.5,0 m 31.5625,-4.5 -27.0625,0 m 158.82031,21 3.83984,0 0,-1.26172 -0.17968,-0.59766 -0.41797,-0.35937 -0.36328,-0.17969 -0.53907,-0.17969 -0.89843,0 -0.53907,0.17969 -0.36328,0.17969 -0.35937,0.35937 -0.17969,0.59766 z m 0,-3.83984 3.83984,0 -3.83984,-2.58204 3.83984,0 m 49.44141,0.24219 3.17969,3.17969 -3.17969,3.17969 M 696.53906,547.5 l 52.44141,0 m -497.28125,-33 0.12109,-2.51953 0.35938,-2.46094 0.53906,-2.39844 0.78125,-2.40234 1.01953,-2.27734 1.19922,-2.16016 1.44141,-2.04297 1.62109,-1.91797 1.73828,-1.80078 1.92188,-1.55859 2.03906,-1.44141 2.21875,-1.19922 2.28125,-1.01953 2.33984,-0.78125 2.39844,-0.59766 2.51953,-0.30078 2.46094,-0.12109 m 0,27 -27,0 m 27,-35.28125 -55.5,0 m 0,43.5 55.5,0 m 0,-47.21875 -55.5,0 m -36,42.71875 0.12109,-2.69922 0.35938,-2.75781 0.60156,-2.70313 0.83984,-2.57812 1.01953,-2.58203 1.25782,-2.39844 1.5,-2.33984 1.67968,-2.16016 1.86329,-2.03906 2.03906,-1.85938 2.16015,-1.67969 2.28125,-1.4414 2.45704,-1.32031 2.51953,-1.01954 2.64062,-0.83984 2.69922,-0.60156 2.70313,-0.35938 2.75781,-0.12109 m -81.17969,21.12109 3.83984,0 0,-1.26172 -0.17968,-0.53906 -0.35938,-0.35937 -0.35937,-0.23828 -0.53907,-0.17969 -0.96093,0 -0.53907,0.17969 -0.36328,0.23828 -0.35937,0.35937 -0.17969,0.53906 z m 0,-3.83984 3.83984,0 -3.83984,-2.57813 3.83984,0 m -44.160151,3.29688 3.179691,3.17969 m 23.82031,-21.17969 0,36 m -9,-36 0,36 m -9,-36 0,36 m -9.000001,-36 0,36 m 78.000001,0 -78.000001,0 m 121.500001,0 0,-4.5 m -21,6.78125 -22.5,0 m 0,-2.28125 43.5,0 m -31.5,-4.5 36,0 m -122.82031,-16.67969 -3.179691,3.17969 39.062501,0 m -3.0625,-18 -36.000001,0 m 121.500001,0 4.5,0 m 306,1.5 0,-5.21875 m -250.5,4.5 0,-12 m 3.78125,12 0,-8.28125 m 275.28125,9 -0.1211,2.33984 -0.35937,2.33985 -0.60156,2.28125 -0.78125,2.21875 -1.01953,2.16015 -1.19922,1.98047 -1.37891,1.92188 -1.62109,1.73828 -1.73828,1.5625 -1.86329,1.4375 -2.03906,1.19922 -2.09765,1.02343 -2.22266,0.77735 -2.27734,0.60156 -2.33985,0.30078 -2.40234,0.11719 m -133.5,0.78125 87.60156,0 m -87.60156,3.71875 129,0 M 373.98047,513 l 2.21875,0 m -2.21875,3.71875 2.21875,0 m -55.5,-7.07813 0,3.35938 m -3.71875,-3.35938 0,7.07813 M 278.69922,514.5 l 3.78125,0 m 34.5,2.21875 53.21875,0 m -49.5,-3.71875 53.28125,0 m -53.28125,-3.35938 -3.71875,0 M 400.19922,513 l 0,3.71875 m -24,-3.71875 0,3.71875 m 172.92187,7.26172 -2.76172,0 -0.53906,-0.17969 -0.35937,-0.35937 -0.17969,-0.60157 0,-0.35937 0.17969,-0.53906 0.35937,-0.36329 0.53906,-0.17968 2.76172,0 m -3.83984,-1.4375 3.83984,0 0,-1.67969 -0.17968,-0.54297 -0.17969,-0.17969 -0.36328,-0.17968 -0.59766,0 -0.35937,0.17968 -0.17969,0.17969 -0.1836,0.54297 0,1.67969 m -55.5,-9.96094 0,3 m -3.77734,-3 0,3 m 41.39844,-0.78125 4.5,0 M 491.57812,513 l 37.6211,0 m -37.6211,-3 -3.77734,0 m -209.10156,-22.5 3.78125,0 m 275.28125,0.71875 -24.0625,0 0,-0.71875 m -4.5,0.71875 4.5,0 m 0,-0.71875 31.5625,0 m 138.71875,24 54,0 m -391.19922,-31.92188 -4.5,0 0,-4.5 4.5,0 z m -4.5,0 z M 320.69922,475.5 l 0,7.07812 m -3.71875,-3.35937 0,3.35937 3.71875,0 m -3.71875,-3.35937 -34.5,0 m -3.78125,-3.71875 42,0 m 191.8789,3.71875 0,3.78125 m -24.77734,-3.78125 0,6.78125 3.77734,0 0,-3 21,0 m 16.6211,0 31.5625,0 m -48.1836,-3.78125 -24.77734,0 M 218.69922,408 l 0,-45 m 55.5,0 0,4.5 m 21,-4.5 0,4.5 m 7.5,-4.5 0,4.5 m 24,-4.5 0,4.5 m 48.35937,-3.60156 -8.39843,3.60156 m 112.73828,-3.60156 8.40234,3.60156 m 45.89844,18 0,-22.5 m -259.5,4.5 -51,0 0,40.5 m -2.21875,31.5 0,-31.5 m -2.28125,0 0,31.5 m 4.5,-31.5 0,31.5 -4.5,0 m 0,-31.5 4.5,0 m 268.3789,-6.78125 0,9.78125 m -3.77734,0 0,-9.78125 M 531.48047,385.5 l 0,21 m -2.28125,-21 0,21 m 4.5,-21 0,21 m -4.5,4.5 0,-4.5 m -37.6211,4.5 -3.77734,0 m 72.96094,0 -31.5625,0 m 36.0625,-4.5 -36.0625,0 m 0,-21 0,-18 m -37.6211,33.71875 -3.77734,0 M 533.69922,385.5 l -4.5,0 m -234,-20.28125 -21,0 m 0,2.28125 21,0 m 31.5,-2.28125 -24,0 m 24,2.28125 -31.5,0 m 71.46094,0 -39.96094,0 m 161.10156,9.71875 0,-9.71875 m 3.77734,0 0,9.71875 -3.77734,0 m 41.39844,-9.71875 -41.39844,0 m -213.60156,-4.5 -141,0 m 400.5,0 170.28125,0 m -223.74219,-1.19922 -19.31641,-8.22266 m -0.90234,2.10157 19.37891,8.21875 m 1.74218,-4.13672 -19.32031,-8.22266 m -67.4414,4.14063 -1.73829,-4.14063 -19.32031,8.22266 m 0.83985,2.03906 19.32031,-8.22266 m 68.33984,-2.03906 -1.80078,4.14063 -6.71875,-2.87891 m -52.14062,0 -6.78125,2.87891 -19.32032,8.21875 M 274.19922,363 l 21,0 m 31.5,0 -31.5,0 m 70.5,0 7.62109,-3.23828 1.73828,4.13672 M 365.69922,363 l -39,0 m 82.5,-14.69922 0,4.5 m 36,-4.5 0,4.5 m -45,-4.5 -7.5586,3.23828 m 61.5586,-3.23828 7.62109,3.23828 m -16.62109,-1.01953 -36,0 m 36,2.28125 -44.03906,0 m 52.14062,0 -8.10156,0 m 0,-4.5 -45,0 m 54,0 -9,0 m 43.5,14.69922 -7.5586,-3.23828 -1.74218,4.13672 M 533.69922,363 l -45,0 m -94.07813,348 0.48047,0 m 5.03906,0 0.96094,0 m 5.03906,0 0.96094,0 m 5.03906,0 0.96094,0 m 5.03906,0 0.96094,0 m 5.03906,0 0.96094,0 m 5.03906,0 0.96094,0 m 5.03906,0 0.96094,0 m 5.03906,0 0.96094,0 m 5.03906,0 0.48047,0 m -306.66015,-34.32031 18,0 0,18 -18,0 z m 0,0"
       trasform="matrix(0,-1,-1,0,1224,792)"
       id="path19"
       inkscape:connector-curvature="0" />
  </g>
  <text
     xml:space="preserve"
     style="font-size:32px;font-style:normal;font-weight:normal;line-height:125%;letter-spacing:0px;word-spacing:0px;fill:#000000;fill-opacity:1;stroke:none;font-family:Sans"
     x="347.66064"
     y="122.3994"
     id="text3046"
     sodipodi:linespacing="125%"><tspan
       sodipodi:role="lie"
       x="347.66064"
       y="122.3994"
       id="tspan3048"><tspan
         x="347.66064"
         y="122.3994"
         style="font-size:14.39999962px"
         id="tspan3050">Back Porch</tspan></tspan></text>
  <a
     target="_blank" xlink:href="../tour.html#Octopus"
     id="a18"
     transform="translate(-363.08935,-32.45378)">
    <text
       xml:space="preserve"
       style="font-size:32px;font-style:normal;font-weight:normal;line-height:125%;letter-spacing:0px;word-spacing:0px;fill:#000000;fill-opacity:1;stroke:none;font-family:Sans"
       x="450.37863"
       y="436.1871"
       id="text3052"
       sodipodi:linespacing="125%"><tspan
         sodipodi:role="lie"
         x="450.37863"
         y="436.1871"
         id="tspan3054"><tspan
           x="450.37863"
           y="436.1871"
           style="font-size:14.39999962px;fill:#0000ff"
           id="tspan3056">Octopus</tspan></tspan></text>
  </a>
  <a
     target="_blank" xlink:href="../tour.html#the-end"
     id="a23"
     transform="translate(-363.08935,-32.45378)">
    <text
       xml:space="preserve"
       style="font-size:32px;font-style:normal;font-weight:normal;line-height:125%;letter-spacing:0px;word-spacing:0px;fill:#000000;fill-opacity:1;stroke:none;font-family:Sans"
       x="430.4469"
       y="189.98233"
       id="text3058"
       sodipodi:linespacing="125%"><tspan
         sodipodi:role="lie"
         x="430.4469"
         y="189.98233"
         id="tspan3060"><tspan
           x="430.4469"
           y="189.98233"
           style="font-size:14.39999962px;fill:#0000ff"
           id="tspan3062">The End</tspan></tspan></text>
  </a>
  <a
     target="_blank" xlink:href="../tour.html#the-fractal"
     id="a28"
     transform="translate(-363.08935,-32.45378)">
    <text
       xml:space="preserve"
       style="font-size:32px;font-style:normal;font-weight:normal;line-height:125%;letter-spacing:0px;word-spacing:0px;fill:#000000;fill-opacity:1;stroke:none;font-family:Sans"
       x="424.27728"
       y="266.47467"
       id="text3064"
       sodipodi:linespacing="125%"><tspan
         sodipodi:role="lie"
         x="424.27728"
         y="266.47467"
         id="tspan3066"><tspan
           x="424.27728"
           y="266.47467"
           style="font-size:14.39999962px;fill:#0000ff"
           id="tspan3068">The Fractal</tspan></tspan></text>
  </a>
  <a
     target="_blank" xlink:href="../tour.html#the-drug"
     id="a33"
     transform="translate(-363.08935,-32.45378)">
    <text
       xml:space="preserve"
       style="font-size:32px;font-style:normal;font-weight:normal;line-height:125%;letter-spacing:0px;word-spacing:0px;fill:#000000;fill-opacity:1;stroke:none;font-family:Sans"
       x="425.50406"
       y="346.68503"
       id="text3070"
       sodipodi:linespacing="125%"><tspan
         sodipodi:role="lie"
         x="425.50406"
         y="346.68503"
         id="tspan3072"><tspan
           x="425.50406"
           y="346.68503"
           style="font-size:14.39999962px;fill:#0000ff"
           id="tspan3074">The Drug</tspan></tspan></text>
  </a>
  <a
     target="_blank" xlink:href="../tour.html#the-veggie-patch"
     id="a38"
     transform="translate(-363.08935,-32.45378)">
    <text
       xml:space="preserve"
       style="font-size:32px;font-style:normal;font-weight:normal;line-height:125%;letter-spacing:0px;word-spacing:0px;fill:#000000;fill-opacity:1;stroke:none;font-family:Sans"
       x="383.55969"
       y="518.20502"
       id="text3076"
       sodipodi:linespacing="125%"><tspan
         sodipodi:role="lie"
         x="383.55969"
         y="518.20502"
         id="tspan3078"><tspan
           x="383.55969"
           y="518.20502"
           style="font-size:14.39999962px;fill:#0000ff"
           id="tspan3080">The </tspan></tspan><tspan
         sodipodi:role="lie"
         x="383.55969"
         y="536.20502"
         id="tspan3082"><tspan
           x="383.55969"
           y="536.20502"
           style="font-size:14.39999962px;fill:#0000ff"
           id="tspan3084">Veggie </tspan></tspan><tspan
         sodipodi:role="lie"
         x="383.55969"
         y="554.20502"
         id="tspan3086"><tspan
           x="383.55969"
           y="554.20502"
           style="font-size:14.39999962px;fill:#0000ff"
           id="tspan3088">Patch</tspan></tspan></text>
  </a>
  <a
     target="_blank" xlink:href="../tour.html#the-electric-bluegaloo"
     id="a47"
     transform="translate(-363.08935,-32.45378)">
    <text
       xml:space="preserve"
       style="font-size:32px;font-style:normal;font-weight:normal;line-height:125%;letter-spacing:0px;word-spacing:0px;fill:#000000;fill-opacity:1;stroke:none;font-family:Sans"
       x="473.64832"
       y="584.84393"
       id="text3090"
       sodipodi:linespacing="125%"><tspan
         sodipodi:role="lie"
         x="473.64832"
         y="584.84393"
         id="tspan3092"><tspan
           x="473.64832"
           y="584.84393"
           style="font-size:14.39999962px;fill:#0000ff"
           id="tspan3094">Electric</tspan></tspan><tspan
         sodipodi:role="lie"
         x="473.64832"
         y="584.84393"
         id="tspan3092"><tspan
           x="473.64832"
           y="601.84393"
           style="font-size:14.39999962px;fill:#0000ff"
           id="tspan3094">Bluegaloo</tspan></tspan></text>
  </a>
  <a
     target="_blank" xlink:href="../tour.html#Murph"
     id="a52"
     transform="translate(-363.08935,-32.45378)">
    <text
       xml:space="preserve"
       style="font-size:32px;font-style:normal;font-weight:normal;line-height:125%;letter-spacing:0px;word-spacing:0px;fill:#000000;fill-opacity:1;stroke:none;font-family:Sans"
       x="615.53143"
       y="590.99396"
       id="text3096"
       sodipodi:linespacing="125%"><tspan
         sodipodi:role="lie"
         x="615.53143"
         y="590.99396"
         id="tspan3098"><tspan
           x="615.53143"
           y="590.99396"
           style="font-size:14.39999962px;fill:#0000ff"
           id="tspan3100">Murph</tspan></tspan></text>
  </a>
  <text
     xml:space="preserve"
     style="font-size:32px;font-style:normal;font-weight:normal;line-height:125%;letter-spacing:0px;word-spacing:0px;fill:#000000;fill-opacity:1;stroke:none;font-family:Sans"
     x="396.81415"
     y="585.70776"
     id="text3102"
     sodipodi:linespacing="125%"><tspan
       sodipodi:role="lie"
       x="396.81415"
       y="585.70776"
       id="tspan3104"><tspan
         x="396.81415"
         y="585.70776"
         style="font-size:14.39999962px;fill:#000000"
         id="tspan3106">Front Porch</tspan></tspan></text>
  <a
     target="_blank" xlink:href="../tour.html#Dining Room"
     id="a60"
     transform="translate(-363.08935,-32.45378)">
    <text
       xml:space="preserve"
       style="font-size:32px;font-style:normal;font-weight:normal;line-height:125%;letter-spacing:0px;word-spacing:0px;fill:#000000;fill-opacity:1;stroke:none;font-family:Sans"
       x="748.80701"
       y="372.59537"
       id="text3108"
       sodipodi:linespacing="125%"><tspan
         sodipodi:role="lie"
         x="748.80701"
         y="372.59537"
         id="tspan3110"><tspan
           x="748.80701"
           y="372.59537"
           style="font-size:14.39999962px;fill:#0000ff"
           id="tspan3112">Dining Room</tspan></tspan></text>
  </a>
  <a
     target="_blank" xlink:href="../tour.html#Kitchen"
     id="a65"
     transform="translate(-363.08935,-32.45378)">
    <text
       xml:space="preserve"
       style="font-size:32px;font-style:normal;font-weight:normal;line-height:125%;letter-spacing:0px;word-spacing:0px;fill:#000000;fill-opacity:1;stroke:none;font-family:Sans"
       x="610.59912"
       y="338.06168"
       id="text3114"
       sodipodi:linespacing="125%"><tspan
         sodipodi:role="lie"
         x="610.59912"
         y="338.06168"
         id="tspan3116"><tspan
           x="610.59912"
           y="338.06168"
           style="font-size:14.39999962px;fill:#0000ff"
           id="tspan3118">Kitchen</tspan></tspan></text>
  </a>
  <a
     target="_blank" xlink:href="../tour.html#Sex Dungeon"
     id="a70"
     transform="translate(-363.08935,-32.45378)">
    <text
       xml:space="preserve"
       style="font-size:32px;font-style:normal;font-weight:normal;line-height:125%;letter-spacing:0px;word-spacing:0px;fill:#000000;fill-opacity:1;stroke:none;font-family:Sans"
       x="750.04266"
       y="292.38879"
       id="text3120"
       sodipodi:linespacing="125%"><tspan
         sodipodi:role="lie"
         x="750.04266"
         y="292.38879"
         id="tspan3122"><tspan
           x="750.04266"
           y="292.38879"
           style="font-size:14.39999962px;fill:#0000ff"
           id="tspan3124">Sex Dungeon</tspan></tspan></text>
  </a>
  <a
     target="_blank" xlink:href="../tour.html#Pineapple"
     id="a75"
     transform="translate(-363.08935,-32.45378)">
    <text
       xml:space="preserve"
       style="font-size:32px;font-style:normal;font-weight:normal;line-height:125%;letter-spacing:0px;word-spacing:0px;fill:#000000;fill-opacity:1;stroke:none;font-family:Sans"
       x="557.54059"
       y="181.35379"
       id="text3126"
       sodipodi:linespacing="125%"><tspan
         sodipodi:role="lie"
         x="557.54059"
         y="181.35379"
         id="tspan3128"><tspan
           x="557.54059"
           y="181.35379"
           style="font-size:14.39999962px;fill:#0000ff"
           id="tspan3130">Pineapple</tspan></tspan></text>
  </a>
  <a
     target="_blank" xlink:href="../tour.html#Jazz Lounge"
     id="a80"
     transform="translate(-363.08935,-32.45378)">
    <text
       xml:space="preserve"
       style="font-size:32px;font-style:normal;font-weight:normal;line-height:125%;letter-spacing:0px;word-spacing:0px;fill:#000000;fill-opacity:1;stroke:none;font-family:Sans"
       x="754.96942"
       y="525.60144"
       id="text3132"
       sodipodi:linespacing="125%"><tspan
         sodipodi:role="lie"
         x="754.96942"
         y="525.60144"
         id="tspan3134"><tspan
           x="754.96942"
           y="525.60144"
           style="font-size:14.39999962px;fill:#0000ff"
           id="tspan3136">Jazz Lounge</tspan></tspan></text>
  </a>
</svg>
