<?xml version="1.0" encoding="UTF-8" standalone="no"?>
<svg
   xmlns:dc="http://purl.org/dc/elements/1.1/"
   xmlns:cc="http://creativecommons.org/ns#"
   xmlns:rdf="http://www.w3.org/1999/02/22-rdf-syntax-ns#"
   xmlns:svg="http://www.w3.org/2000/svg"
   xmlns="http://www.w3.org/2000/svg"
   xmlns:xlink="http://www.w3.org/1999/xlink"
   xmlns:sodipodi="http://sodipodi.sourceforge.net/DTD/sodipodi-0.dtd"
   xmlns:inkscape="http://www.inkscape.org/namespaces/inkscape"
   width="614.85156"
   height="635.39844"
   viewBox="0 0 491.88125 508.31875"
   version="1.1"
   id="svg2"
   inkscape:version="0.48.4 r9939"
   sodipodi:docname="floor3.svg">
  <metadata
     id="metadata29">
    <rdf:RDF>
      <cc:Work
         rdf:about="">
        <dc:format>image/svg+xml</dc:format>
        <dc:type
           rdf:resource="http://purl.org/dc/dcmitype/StillImage" />
      </cc:Work>
    </rdf:RDF>
  </metadata>
  <defs
     id="defs27" />
  <sodipodi:namedview
     pagecolor="#ffffff"
     bordercolor="#666666"
     borderopacity="1"
     objecttolerance="10"
     gridtolerance="10"
     guidetolerance="10"
     inkscape:pageopacity="0"
     inkscape:pageshadow="2"
     inkscape:window-width="1280"
     inkscape:window-height="750"
     id="namedview25"
     showgrid="false"
     inkscape:zoom="0.84356518"
     inkscape:cx="233.10749"
     inkscape:cy="320.89368"
     inkscape:window-x="0"
     inkscape:window-y="0"
     inkscape:window-maximized="1"
     inkscape:current-layer="svg2"
     fit-margin-top="0"
     fit-margin-left="0"
     fit-margin-right="0"
     fit-margin-bottom="0" />
  <g
     id="surface1"
     transform="translate(-366.84062,-122.87969)">
    <path
       style="fill:none;stroke:#000000;stroke-width:0.60000002;stroke-linecap:round;stroke-linejoin:round;stroke-miterlimit:10;stroke-opacity:1"
       d="m 548.16016,618.35937 45,0 0,-22.5 -45,0 z m -367.5,-26.21875 18,0 0,18 -18,0 z m 0,0"
       transform="matrix(0,-1,-1,0,1224,792)"
       id="path5"
       inkscape:connector-curvature="0" />
    <path
       style="fill:none;stroke:#000000;stroke-width:0.60000002;stroke-linecap:round;stroke-linejoin:round;stroke-miterlimit:10;stroke-opacity:1"
       d="m 377.28125,632.21875 0,-28.85938 m 89.82031,18 0,-28.5 m -3.78125,28.5 0,-55.5 m -186.71875,66 0.11719,-2.33984 0.35937,-2.33984 0.60157,-2.28125 0.83984,-2.21875 1.08203,-2.10157 1.25781,-1.97656 1.5,-1.80078 1.67969,-1.67969 1.80078,-1.5 1.98047,-1.26172 2.10156,-1.07812 2.21875,-0.83984 2.28125,-0.60157 2.27735,-0.35937 2.40234,-0.1211 m 60.35938,-11.64062 0,18.72266 m 1.5,-18.72266 0,18.72266 m -197.64063,15.41796 0,-24 m 2.28125,0 0,24 m -4.5,0 0,-24 m 442.5,14.21875 0,-29.21875 m 57,-3.78125 0,45.78125 m -4.5,-42 0,42 m -59.28125,10.5 0,-52.5 m -199.5,52.5 0,-52.5 m -3.71875,52.5 0,-52.5 m 275.21875,-6.78125 0,254.28125 m -79.4414,-81.48046 18,0 0,18 -18,0 z m -87.0586,9.48046 0,61.5 m 125.28125,-84 0,66 m -4.5,-70.5 0,66 m -117,18 0,-61.5 m -345,4.5 0,13.5 m 249.71875,58.5 0,16.5 m -236.21875,-75 0,75 236.21875,0 m 107.28125,-27 -15.78125,0 m -91.5,10.5 258,0 m -494.21875,-58.5 -13.5,0 m 396,30 0,18 m -4.5,-22.5 0,18 m -34.5,0 0,4.5 m 22.5,-4.5 0,4.5 -22.5,0 m 39,0 -16.5,0 m 0,-2.28125 -22.5,0 m 22.5,-2.21875 -34.5,0 m 46.5,0 -12,0 m 39.77735,-43.98046 36,0 0,22.5 -36,0 z m 47.22265,30.48046 -70.5,0 m 66,-4.5 -70.5,0"
       transform="matrix(0,-1,-1,0,1224,792)"
       id="path7"
       inkscape:connector-curvature="0" />
    <path
       style="fill:none;stroke:#000000;stroke-width:0.60000002;stroke-linecap:round;stroke-linejoin:round;stroke-miterlimit:10;stroke-opacity:1"
       d="m 414.30078,697.26172 3.83984,0 0,-1.26172 -0.17968,-0.60156 -0.35938,-0.35938 -0.36328,-0.17969 -0.53906,-0.17968 -0.89844,0 -0.53906,0.17968 -0.42188,0.17969 -0.35937,0.35938 L 414.30078,696 z m 0,-3.83985 3.83984,0 -3.83984,-2.58203 3.83984,0 m -21.53906,-4.26172 -0.12109,2.34375 -0.35938,2.33985 -0.60156,2.27734 -0.78125,2.22266 -1.01953,2.16015 -1.19922,2.03907 -1.37891,1.85937 -1.62109,1.73828 -1.73828,1.6211 -1.85938,1.3789 -2.04296,1.20313 -2.09766,1.01953 -2.22266,0.77734 -2.27734,0.60157 -2.33984,0.30078 -2.33985,0.11718 0,-24 m 160.5,3.78125 -0.12109,2.46094 -0.35938,2.46094 -0.60156,2.45703 -0.78125,2.33984 -1.01953,2.28125 -1.19922,2.21875 -1.37891,2.04297 -1.62109,1.91797 -1.73828,1.74219 -1.92188,1.61719 -2.03906,1.38281 -2.21875,1.25781 -2.28125,0.96094 -2.33984,0.83984 -2.46094,0.53907 -2.46094,0.35937 -2.45703,0.12109 m 154.5,-46.5 0,75 m -4.5,-75 0,70.5 m -492.78125,-46.5 0,-24 m 2.28125,0 0,24 m -4.5,0 0,-24 m 138,16.6211 8.21875,7.80078 m -4.5,-9.42188 7.07813,6.71875 m 192.42187,24.78125 3.78125,0 m -340.5,46.5 340.5,0"
       transform="matrix(0,-1,-1,0,1224,792)"
       id="path9"
       inkscape:connector-curvature="0" />
    <path
       style="fill:none;stroke:#000000;stroke-width:0.60000002;stroke-linecap:round;stroke-linejoin:round;stroke-miterlimit:10;stroke-opacity:1"
       d="m 484.32031,752.57812 -2.46094,-0.11718 -2.51953,-0.30078 -2.39843,-0.60157 -2.33985,-0.77734 -2.28125,-1.01953 -2.21875,-1.20313 -2.04297,-1.4375 -1.91797,-1.5625 -1.74218,-1.73828 -1.61719,-1.92187 -1.38281,-2.09766 -1.25782,-2.16016 -0.96093,-2.28125 -0.83985,-2.39843 -0.53906,-2.40235 -0.35937,-2.45703 -0.1211,-2.52344 m 27,0 0,27 m -150,-27 0,19.6211 m 168,-19.6211 0,38.28125 m -171.71875,-46.3789 0,24 m -169.5,26.8789 0,-73.5 m 4.5,69 0,-69 m 10.19922,40.67969 36,0 0,22.5 -36,0 z m 140.51953,9.66016 0,18.66015 m -86.21875,-18 0,18 m 3.71875,-18 0,18 m 78.78125,-22.3789 0,22.3789 m -151.5,4.5 341.21875,0 m -272.21875,-22.5 3.71875,0 m 100.5,-0.66015 -18,0 m 14.28125,-3.71875 -18,0 m 12.0586,-29.64063 -1.67969,1.6211 -1.85938,1.4375 -1.98047,1.26172 -2.10156,1.07812 -2.21875,0.83984 -2.28125,0.60157 -2.27734,0.42187 -2.40235,0.17969 -2.33984,-0.0625 -2.33984,-0.29688 -2.28125,-0.48046 -2.21875,-0.78125 -2.16016,-0.96094 -2.03906,-1.14063 -1.92188,-1.3789 -1.79687,-1.5 16.55859,-17.39844 m 19.91797,13.85937 7.08203,6.71875 m -9.66015,-4.01953 5.9414,5.64063 m -146.40234,-4.44141 18,0 0,18 -18,0 z m 273.12109,8.82031 0,3.71875 m 27,-3.71875 0,3.71875 m -150,0 123,0 m 27,0 18,0 m -45,-3.71875 -123,0 0,-4.3789 m 0,-1.6211 0,6 m 168,-4.5 0,4.5 -18,0 m -318.71875,-27 -4.5,0 m 166.13672,14.28125 -2.57812,2.69922 m -14.76172,-19.26172 -2.57813,2.70313 m 348.78125,46.07812 -36,0 0,-9 36,0 z m 0,0"
       transform="matrix(0,-1,-1,0,1224,792)"
       id="path11"
       inkscape:connector-curvature="0" />
    <path
       style="fill:none;stroke:#000000;stroke-width:0.60000002;stroke-linecap:round;stroke-linejoin:round;stroke-miterlimit:10;stroke-opacity:1"
       d="m 506.10156,763.85937 0,-46.5 m 154.5,28.5 -33,0 m 28.5,-4.5 -33,0 m -120.78125,-51 3.78125,0 m 3,-52.5 -18,0 m -158.28125,7.5 0,13.5 m -27,-13.5 0,13.5 m -144.71875,12 0,-39 m 4.5,39 0,-39 m 312,40.5 -3.17969,-3.17968 m 23.39844,16.67968 0,-27 m -6.71875,27 0,-27 m -6.78125,27 0,-27 m -6.71875,27 0,-27 m -6.78125,27 0,-27 m -6.71875,27 0,-27 m -6.78125,27 0,-27 m -6.71875,27 0,-27 m -6.78125,27 0,-27 m -6.71875,27 0,-27 m -20.28125,0 12,26.21875 m 1.5,0 0,-26.21875 m 72,31.5 0,-31.5 m -132.71875,24 0,-24 m 30,24 0,-24 m 3.71875,27.71875 0,-27.71875 m -37.5,27.71875 0,-27.71875 m -63,27 0,-27 m -3.71875,28.6211 0,-22.6211 m 117,25.26172 0,-17.76172 m -12.78125,0.35938 25.5,12.35937 m -32.21875,1.5 6.71875,0 m -6.71875,-3.71875 3,0 m -27,0 0,3.71875 m 24,-3.71875 0,3.71875 m -27,-3.71875 3,0 m -6.78125,3.71875 6.78125,0 m 59.21875,1.5 -3,0 0,-3 3,0 z m -3,0 z m 3,-0.71875 70.5,0 m -73.5,-0.78125 -25.5,0 m 28.5,-0.71875 70.5,0 m -86.21875,-13.5 61.5,0 -3.17969,3.17969 M 198.83984,670.5 l -18,0 0,-9 18,0 z m 82.26172,-5.64063 0,-6 m -115.5,12 -4.5,0 m 120,-6 18,0 m -133.5,-6 115.5,0 m 51.71875,0 33,0 m 3.78125,0 30,0 m -96.78125,0 3,0 m 97.5,0 99,0 m -327.89844,-44.21875 36,0 0,27 -36,0 z m 147.89844,20.51954 3.83985,0 0,-1.32032 -0.17969,-0.53906 -0.35938,-0.35937 -0.35937,-0.17969 -0.54297,-0.1836 -0.89844,0 -0.53906,0.1836 -0.42188,0.17969 -0.35937,0.35937 -0.17969,0.53906 z m 0,-3.83985 3.83985,0 -3.83985,-2.58203 3.83985,0 m 116.16015,13.62109 0.1211,-2.21875 0.35937,-2.16015 0.53906,-2.10156 0.78125,-2.09766 1.01953,-1.92188 1.19922,-1.85937 1.37891,-1.67969 1.5625,-1.55859 1.67969,-1.38281 1.85937,-1.19922 1.98047,-1.01953 2.03906,-0.78125 2.10157,-0.59766 2.21875,-0.30078 2.16015,-0.1211 m -157.5,-3 2.51953,0.1211 2.46094,0.30078 2.39844,0.59766 2.40234,0.78125 2.27735,1.01953 2.16015,1.19922 2.03906,1.4414 1.92188,1.5586 1.80078,1.80078 1.55859,1.92187 1.44141,2.03906 1.19922,2.16016 1.01953,2.27734 0.78125,2.40235 0.53906,2.39844 0.35938,2.46093 0.12109,2.51953 m -27,0 0,-27 m 37.6211,0.71875 0,26.28125 m 8.39843,-26.28125 0,26.28125 m 25.01953,0 -14.75781,-25.14062 31.5,11.64062 m -33.42187,-11.64062 0,25.14062 m -25.07813,0 0,-25.14062 m -32.28125,11.64062 -3.71875,0 m -18,6 0,6 -115.5,0 m 0,-12 -4.5,0 m 77.03906,8.51954 -22.5,0 0,-9 22.5,0 z m 60.96094,-8.51954 0,6 -18,0 m 18,-6 -22.5,0 m 26.21875,13.5 0,-13.5 m 188.28125,13.5 0,-7.5 m -27.78125,7.5 -130.5,0 m -27,0 -3,0 m 139.5,-3 24.78125,0 m 24,3 -24,0 0,-3 m -3.78125,3 0,-3 m -136.92187,-10.14062 50.88281,0 m 86.03906,-10.85938 3.78125,0 m -108.78125,-2.28125 -21.35937,0 m 21.35937,-1.5 -21.35937,0 m 0,2.64063 -3.78125,0 0,-3.77734 3.78125,0 z m -3.78125,0 z m 28.92187,0 -3.78125,0 0,-3.77734 3.78125,0 z m -3.78125,0 z m 35.28125,-1.85938 -31.5,0 m 294,32.21875 0,4.5 m 4.5,15.78125 0,-36 m -57,36 0,-45 m -97.5,33 0,31.5 27,0 m 125.21875,-35.28125 0,15.78125 m -2.21875,-15.78125 0,15.78125 m -91.5,-12 0,12 39,0 m 52.5,0 4.5,0 m -154.5,-12 58.5,0 m 96,-3.78125 -4.5,0 m -94.4414,-14.21875 18,0 0,-18 -18,0 z m 96.66015,9.71875 0,-15.71875 m -2.21875,0 0,15.71875 m -147,-12.71875 0,7.5 87.71875,0 m 63.78125,5.21875 -4.5,0 m 0,-15.71875 4.5,0 m -57,-12.78125 14.21875,0 m -14.21875,3.78125 14.21875,0 m 24,0 14.28125,0 m -14.28125,-3.78125 14.28125,0 m -38.28125,3.78125 0,-3.78125 m 24,3.78125 0,-3.78125"
       transform="matrix(0,-1,-1,0,1224,792)"
       id="path13"
       inkscape:connector-curvature="0" />
    <path
       style="fill:none;stroke:#000000;stroke-width:0.60000002;stroke-linecap:round;stroke-linejoin:round;stroke-miterlimit:10;stroke-opacity:1"
       d="m 390.60156,489.53906 0,-90.96094 m 21.71875,64.86329 0,-22.32032 m -18,22.32032 0,-64.86329 m -147.71875,58.5 0,-17.21875 m 4.5,17.21875 0,-13.5 m 165,88.5 0,-90.95703 m 97.5,39.23828 0,-61.5 m -3.78125,65.21875 0,-61.5 m 51.78125,163.5 0,-220.5 m -77.70312,141.90235 36,0 0,22.5 -36,0 z m -56.21875,0.59765 2.39843,0.1211 2.28125,0.35937 2.28125,0.54297 2.21875,0.83985 2.16016,0.95703 2.03906,1.26172 1.86328,1.3789 1.73829,1.5625 1.62109,1.73828 1.37891,1.92188 1.19921,2.03906 1.01954,2.09766 0.78125,2.22265 0.60156,2.27735 0.29687,2.33984 0.1211,2.33984 m -24,0 0,-24 m -65.57813,24 0.11719,-2.33984 0.30078,-2.33984 0.60156,-2.27735 0.77735,-2.22265 1.02343,-2.09766 1.19922,-2.03906 1.37891,-1.92188 1.62109,-1.73828 1.73828,-1.5625 1.85938,-1.3789 2.04297,-1.26172 2.16015,-0.95703 2.21875,-0.83985 2.28125,-0.54297 2.27735,-0.35937 2.40234,-0.1211 0,24 m -225,0 0,-6.71875 m 102.71875,6.71875 0,-35.21875 m 3.78125,39 0,-42.78125 m 123,39 0,-22.3164 m 3.71875,22.3164 0,-22.3164 m 18,22.3164 0,-64.85937 m 119.28125,125.64062 0,-108.78125 m 3.71875,105 0,-108.71875 m -21.89844,123.71875 -18,0 0,-9 18,0 z m 0,0"
       transform="matrix(0,-1,-1,0,1224,792)"
       id="path15"
       inkscape:connector-curvature="0" />
    <path
       style="fill:none;stroke:#000000;stroke-width:0.60000002;stroke-linecap:round;stroke-linejoin:round;stroke-miterlimit:10;stroke-opacity:1"
       d="m 531.60156,592.85937 -64.5,0 m 64.5,-3.78125 -64.5,0 m 64.5,-53.21875 -64.5,0 m 64.5,-3.78125 -79.92187,0"
       transform="matrix(0,-1,-1,0,1224,792)"
       id="path17"
       inkscape:connector-curvature="0" />
    <path
       style="fill:none;stroke:#000000;stroke-width:0.60000002;stroke-linecap:round;stroke-linejoin:round;stroke-miterlimit:10;stroke-opacity:1"
       d="m 463.32031,565.85937 -2.46094,-0.12109 -2.51953,-0.35937 -2.39843,-0.53907 -2.33985,-0.83984 -2.28125,-0.96094 -2.21875,-1.25781 -2.04297,-1.38281 -1.91797,-1.61719 -1.74218,-1.74219 -1.61719,-1.91797 -1.38281,-2.04297 -1.25782,-2.21875 -0.96093,-2.28125 -0.83985,-2.33984 -0.53906,-2.45703 -0.35937,-2.46094 -0.1211,-2.46094 m -275.21875,69 0,-75.78125 m 4.5,75.78125 0,-72 m 301.5,53.21875 0,-23.21875 m -164.28125,43.5 0,-73.5 m -3.71875,13.5 0,60 3.71875,0 m -137.21875,-1.5 -4.5,0 m 219.35938,-1.32031 -3.17969,-3.17969 -3.17969,3.17969 m 19.5,4.32031 -32.64062,0 m 32.64062,-7.5 -32.64062,0 m 1.14062,-5.64062 -3.78125,0 0,-3.77734 3.78125,0 z m -3.78125,0 z m 35.28125,-1.14063 -31.5,0 m 31.5,-1.5 -31.5,0 m 31.5,-2.21875 3.71875,0 m 66,-27 3.78125,0 m -105,-33.78125 -94.5,0 m 18,3.78125 0,13.5 13.5,0 m -35.28125,-17.28125 -102.71875,0 m 4.5,3.78125 120,0 m 142.07813,0 -41.57813,0 m 26.21875,-3.78125 -18,0 m -32.21875,0 0,3.78125 m 24,-3.78125 0,3.78125 m -24,0 -59.28125,0 m 87.78125,-3.78125 -4.5,0 m 41.57813,3.78125 0,-3.78125 m 24,3.78125 0,-3.78125 m 11.64062,6.78125 -27,0 m 30.78125,0 0,-3 m -3.78125,0 0,3 3.78125,0 m -3.78125,-3 -11.64062,0 m -24,-3.78125 -11.57813,0 m 240,60.78125 -124.5,0 m 129,-3.78125 -125.28125,0 m 133.5,-3 -107.21875,0 m -69.0625,-98.09765 18,0 0,18 -18,0 z m -206.75781,3.17969 18,0 0,18 -18,0 z m 0,0"
       transform="matrix(0,-1,-1,0,1224,792)"
       id="path19"
       inkscape:connector-curvature="0" />
    <path
       style="fill:none;stroke:#000000;stroke-width:0.60000002;stroke-linecap:round;stroke-linejoin:round;stroke-miterlimit:10;stroke-opacity:1"
       d="m 394.32031,489.53906 0,-22.32031 m -143.21875,25.85937 0,-13.5 m -4.5,17.28125 0,-17.28125 m 25.67969,31.74219 45,0 0,18 -45,0 z m -25.67969,-14.46094 0,28.5 -85.5,0 m 233.21875,-15.59765 -3.71875,0 m -126.78125,-12.90235 -17.21875,0 m 21,-3.78125 -16.5,0 m 143.21875,-3.53906 -3.71875,0 m -141.78125,-9.96094 0,-22.5 m -2.21875,0 0,22.5 m 4.5,-22.5 0,22.5 -4.5,0 m 4.5,-22.5 -4.5,0 m 147.71875,10.14063 18,0 m -18,-3.77734 18,0 m 119.28125,20.63671 -21.78125,0 m 25.5,-3.71875 -21.71875,0 m -267,-40.5 0,-74.28125 m 267,53.28125 -42.78125,0 m 39,3.71875 -42.71875,0 m -171.36328,-11.63671 -22.5,0 0,-9 22.5,0 z m 120.36328,9.95703 0,-22.32032 m -3.78125,22.32032 0,-22.32032 m -144.71875,45 0,-45 m -3.78125,41.28125 0,-45 m 207,24 0,-45 m -3.71875,48.71875 0,-44.21875 m 36.71875,57.96094 -18,0 0,-9 18,0 z m -236.21875,7.25781 -16.5,0 m 12.71875,-3.71875 -17.21875,0 m 165.71875,1.26172 3.78125,0 m -3.78125,-20.22265 3.78125,0 m -106.5,-47.03907 0,21 m 4.5,-16.5 0,20.21875 m 53.21875,-3.71875 0,-21 m -3.71875,24.71875 0,-20.21875 m 49.5,16.5 0,-21 m 4.5,24.71875 0,-20.21875 m -108,16.5 -45.78125,0 m 50.28125,3.71875 -46.5,0 m 150,0 -54,0 m 49.5,-3.71875 -45.78125,0 m -39.71875,-16.5 0,-4.5 m 22.5,4.5 0,-4.5 m 81,4.5 0,-4.5 m 22.5,4.5 0,-4.5 m -103.5,4.5 -36,0 m 49.5,0 -13.5,0 m 103.5,0 -36,0 m 49.5,0 -13.5,0 m -126,-2.28125 22.5,0 m 0,-2.21875 -40.5,0 m 57.71875,0 -17.21875,0 m 103.5,2.21875 -22.5,0 m 22.5,-2.21875 -40.5,0 m 57.71875,0 -17.21875,0 m 108,-8.28125 -315,0"
       transform="matrix(0,-1,-1,0,1224,792)"
       id="path21"
       inkscape:connector-curvature="0" />
    <path
       style="fill:none;stroke:#000000;stroke-width:0.60000002;stroke-linecap:round;stroke-linejoin:round;stroke-miterlimit:10;stroke-opacity:1"
       d="m 656.10156,675.35937 -27,0 0,-45 27,0 z m -27,0 z m -16.5,-13.5 -9,0 0,-36 9,0 z m -9,0 z m 13.07813,-18.78125 18,0 0,18 -18,0 z m -103.98047,158.52344 36,0 0,22.5 -36,0 z m 0.66015,-20.10156 18,0 0,18 -18,0 z m 35.33985,20.10156 -13.5,0 0,-36 13.5,0 z m -13.5,0 z m -32.87891,-37.74219 -9,0 0,-36 9,0 z m -9,0 z m -75.96094,-22.5 36,0 0,22.5 -36,0 z m 9,-11.57812 18,0 0,18 -18,0 z m -175.25781,-279.42188 18,0 0,36 -18,0 z m 18,0 z m 1.5586,9 18,0 0,18 -18,0 z m 0,0"
       transform="matrix(0,-1,-1,0,1224,792)"
       id="path23"
       inkscape:connector-curvature="0" />
  </g>
  <a
     target="_blank" xlink:href="../tour.html#the-pirate-ship"
     id="a17"
     transform="translate(-366.84062,-122.87969)">
    <text
       xml:space="preserve"
       style="font-size:32px;font-style:normal;font-weight:normal;line-height:125%;letter-spacing:0px;word-spacing:0px;fill:#000000;fill-opacity:1;stroke:none;font-family:Sans"
       x="426.75"
       y="225.95317"
       id="text3186"
       sodipodi:linespacing="125%"><tspan
         sodipodi:role="line"
         x="426.75"
         y="225.95317"
         id="tspan3188"><tspan
           x="426.75"
           y="225.95317"
           style="font-size:14.39999962px;fill:#0000ff"
           id="tspan3190">The Pirate Ship</tspan></tspan></text>
  </a>
  <a
     target="_blank" xlink:href="../tour.html#skylight"
     id="a22"
     transform="translate(-366.84062,-122.87969)">
    <text
       xml:space="preserve"
       style="font-size:32px;font-style:normal;font-weight:normal;line-height:125%;letter-spacing:0px;word-spacing:0px;fill:#000000;fill-opacity:1;stroke:none;font-family:Sans"
       x="460.87411"
       y="388.18518"
       id="text3192"
       sodipodi:linespacing="125%"><tspan
         sodipodi:role="line"
         x="460.87411"
         y="388.18518"
         id="tspan3194"><tspan
           x="460.87411"
           y="388.18518"
           style="font-size:14.39999962px;fill:#0000ff"
           id="tspan3196">The </tspan></tspan><tspan
         sodipodi:role="line"
         x="460.87411"
         y="406.18518"
         id="tspan3198"><tspan
           x="460.87411"
           y="406.18518"
           style="font-size:14.39999962px;fill:#0000ff"
           id="tspan3200">Sky </tspan></tspan><tspan
         sodipodi:role="line"
         x="460.87411"
         y="424.18518"
         id="tspan3202"><tspan
           x="460.87411"
           y="424.18518"
           style="font-size:14.39999962px;fill:#0000ff"
           id="tspan3204">Light</tspan></tspan></text>
  </a>
  <a
     target="_blank" xlink:href="../tour.html#the-compass"
     id="a31"
     transform="translate(-366.84062,-122.87969)">
    <text
       xml:space="preserve"
       style="font-size:32px;font-style:normal;font-weight:normal;line-height:125%;letter-spacing:0px;word-spacing:0px;fill:#000000;fill-opacity:1;stroke:none;font-family:Sans"
       x="459.91095"
       y="544.65472"
       id="text3206"
       sodipodi:linespacing="125%"><tspan
         sodipodi:role="line"
         x="459.91095"
         y="544.65472"
         id="tspan3208"><tspan
           x="459.91095"
           y="544.65472"
           style="font-size:14.39999962px;fill:#0000ff"
           id="tspan3210">The Compass</tspan></tspan></text>
  </a>
  <a
     target="_blank" xlink:href="../tour.html#the-dragon"
     id="a36"
     transform="translate(-366.84062,-122.87969)">
    <text
       xml:space="preserve"
       style="font-size:32px;font-style:normal;font-weight:normal;line-height:125%;letter-spacing:0px;word-spacing:0px;fill:#000000;fill-opacity:1;stroke:none;font-family:Sans"
       x="588.88275"
       y="542.7616"
       id="text3212"
       sodipodi:linespacing="125%"><tspan
         sodipodi:role="line"
         x="588.88275"
         y="542.7616"
         id="tspan3214"><tspan
           x="588.88275"
           y="542.7616"
           style="font-size:14.39999962px;fill:#0000ff"
           id="tspan3216">The Dragon</tspan></tspan></text>
  </a>
  <a
     target="_blank" xlink:href="../tour.html#the-maze"
     id="a41"
     transform="translate(-366.84062,-122.87969)">
    <text
       xml:space="preserve"
       style="font-size:32px;font-style:normal;font-weight:normal;line-height:125%;letter-spacing:0px;word-spacing:0px;fill:#000000;fill-opacity:1;stroke:none;font-family:Sans"
       x="731.13715"
       y="459.30762"
       id="text3218"
       sodipodi:linespacing="125%"><tspan
         sodipodi:role="line"
         x="731.13715"
         y="459.30762"
         id="tspan3220"><tspan
           x="731.13715"
           y="459.30762"
           style="font-size:14.39999962px;fill:#0000ff"
           id="tspan3222">The Maze</tspan></tspan></text>
  </a>
  <a
     target="_blank" xlink:href="../tour.html#the-loeb"
     id="a46"
     transform="translate(-366.84062,-122.87969)">
    <text
       xml:space="preserve"
       style="font-size:32px;font-style:normal;font-weight:normal;line-height:125%;letter-spacing:0px;word-spacing:0px;fill:#000000;fill-opacity:1;stroke:none;font-family:Sans"
       x="729.23907"
       y="344.55688"
       id="text3224"
       sodipodi:linespacing="125%"><tspan
         sodipodi:role="line"
         x="729.23907"
         y="344.55688"
         id="tspan3226"><tspan
           x="729.23907"
           y="344.55688"
           style="font-size:14.39999962px;fill:#0000ff"
           id="tspan3228">The Loeb</tspan></tspan></text>
  </a>
  <a
     target="_blank" xlink:href="../tour.html#darkness"
     id="a51"
     transform="translate(-366.84062,-122.87969)">
    <text
       xml:space="preserve"
       style="font-size:32px;font-style:normal;font-weight:normal;line-height:125%;letter-spacing:0px;word-spacing:0px;fill:#000000;fill-opacity:1;stroke:none;font-family:Sans"
       x="586.05249"
       y="255.42328"
       id="text3230"
       sodipodi:linespacing="125%"><tspan
         sodipodi:role="line"
         x="586.05249"
         y="255.42328"
         id="tspan3232"><tspan
           x="586.05249"
           y="255.42328"
           style="font-size:14.39999962px;fill:#0000ff"
           id="tspan3234">The </tspan></tspan><tspan
         sodipodi:role="line"
         x="586.05249"
         y="273.42328"
         id="tspan3236"><tspan
           x="586.05249"
           y="273.42328"
           style="font-size:14.39999962px;fill:#0000ff"
           id="tspan3238">Dark-</tspan></tspan><tspan
         sodipodi:role="line"
         x="586.05249"
         y="291.42328"
         id="tspan3240"><tspan
           x="586.05249"
           y="291.42328"
           style="font-size:14.39999962px;fill:#0000ff"
           id="tspan3242">ness</tspan></tspan></text>
  </a>
  <a
     target="_blank" xlink:href="../tour.html#deck"
     id="a60"
     transform="translate(-366.84062,-122.87969)">
    <text
       xml:space="preserve"
       style="font-size:32px;font-style:normal;font-weight:normal;line-height:125%;letter-spacing:0px;word-spacing:0px;fill:#000000;fill-opacity:1;stroke:none;font-family:Sans"
       x="750.10455"
       y="248.7713"
       id="text3244"
       sodipodi:linespacing="125%"><tspan
         sodipodi:role="line"
         x="750.10455"
         y="248.7713"
         id="tspan3246"><tspan
           x="750.10455"
           y="248.7713"
           style="font-size:14.39999962px;fill:#0000ff"
           id="tspan3248">Deck</tspan></tspan></text>
  </a>
  <a
     target="_blank" xlink:href="../tour.html#mental-ward"
     id="a65"
     transform="translate(-366.84062,-122.87969)">
    <text
       xml:space="preserve"
       style="font-size:32px;font-style:normal;font-weight:normal;line-height:125%;letter-spacing:0px;word-spacing:0px;fill:#000000;fill-opacity:1;stroke:none;font-family:Sans"
       x="635.36993"
       y="283.87726"
       id="text3250"
       sodipodi:linespacing="125%"><tspan
         sodipodi:role="line"
         x="635.36993"
         y="283.87726"
         id="tspan3252"><tspan
           x="635.36993"
           y="283.87726"
           style="font-size:14.39999962px;fill:#0000ff"
           id="tspan3254">Mental </tspan></tspan><tspan
         sodipodi:role="line"
         x="635.36993"
         y="301.87726"
         id="tspan3256"><tspan
           x="635.36993"
           y="301.87726"
           style="font-size:14.39999962px;fill:#0000ff"
           id="tspan3258">Ward</tspan></tspan></text>
  </a>
  <a
     target="_blank" xlink:href="../tour.html#murphlet"
     id="a72"
     transform="translate(-366.84062,-122.87969)">
    <text
       xml:space="preserve"
       style="font-size:32px;font-style:normal;font-weight:normal;line-height:125%;letter-spacing:0px;word-spacing:0px;fill:#000000;fill-opacity:1;stroke:none;font-family:Sans"
       x="613.53705"
       y="388.17963"
       id="text3260"
       sodipodi:linespacing="125%"><tspan
         sodipodi:role="line"
         x="613.53705"
         y="388.17963"
         id="tspan3262"><tspan
           x="613.53705"
           y="388.17963"
           style="font-size:14.39999962px;fill:#0000ff"
           id="tspan3264">Murphlet</tspan></tspan></text>
  </a>
</svg>
